<svg width="90" height="90" viewBox="0 0 90 90" fill="none" xmlns="http://www.w3.org/2000/svg">
<path d="M18.75 36.75C18.75 33.5363 18.75 31.3537 18.8925 29.6662C19.0238 28.0237 19.2675 27.18 19.5675 26.595L12.885 23.19C11.9588 25.0087 11.5875 26.9475 11.415 29.055C11.25 31.1175 11.25 33.66 11.25 36.75H18.75ZM18.75 45V36.75H11.25V45H18.75ZM11.25 45V63.75H18.75V45H11.25ZM11.25 63.75V74.6775H18.75V63.75H11.25ZM11.25 74.6775C11.25 79.5187 17.1075 81.945 20.5312 78.5212L15.2287 73.2188C15.5172 72.9302 15.8848 72.7336 16.2849 72.654C16.6851 72.5743 17.0999 72.6152 17.4769 72.7713C17.8538 72.9275 18.176 73.192 18.4026 73.5313C18.6292 73.8706 18.7501 74.2695 18.75 74.6775H11.25ZM20.5312 78.5212L31.5562 67.5L26.25 62.1975L15.2287 73.2188L20.5312 78.5212ZM57 60H31.5525V67.5H57V60ZM67.155 59.1825C66.57 59.4825 65.73 59.7262 64.0838 59.8575C62.3963 59.9963 60.2137 60 57 60V67.5C60.09 67.5 62.6288 67.5 64.695 67.335C66.8025 67.1625 68.7412 66.7912 70.56 65.865L67.155 59.1825ZM70.4325 55.905C69.7135 57.3162 68.5662 58.4635 67.155 59.1825L70.56 65.865C73.3823 64.4269 75.6769 62.1323 77.115 59.31L70.4325 55.905ZM71.25 45.75C71.25 48.9637 71.25 51.1462 71.1075 52.8337C70.9762 54.4762 70.7325 55.32 70.4325 55.905L77.115 59.31C78.0412 57.4912 78.4125 55.5525 78.585 53.445C78.7537 51.3825 78.75 48.84 78.75 45.75H71.25ZM71.25 36.75V45.75H78.75V36.75H71.25ZM70.4325 26.595C70.7325 27.18 70.9762 28.02 71.1075 29.6662C71.25 31.3537 71.25 33.5363 71.25 36.75H78.75C78.75 33.66 78.75 31.1213 78.585 29.055C78.4125 26.9475 78.0412 25.0087 77.115 23.19L70.4325 26.595ZM67.155 23.3175C68.5662 24.0365 69.7135 25.1838 70.4325 26.595L77.115 23.19C75.6769 20.3677 73.3823 18.0731 70.56 16.635L67.155 23.3175ZM57 22.5C60.2137 22.5 62.3963 22.5 64.0838 22.6425C65.7263 22.7738 66.57 23.0175 67.155 23.3175L70.56 16.635C68.7412 15.7087 66.8025 15.3375 64.695 15.165C62.6325 15 60.09 15 57 15V22.5ZM33 22.5H57V15H33V22.5ZM22.845 23.3175C23.43 23.0175 24.27 22.7738 25.9162 22.6425C27.6037 22.5 29.7863 22.5 33 22.5V15C29.91 15 27.3713 15 25.305 15.165C23.1975 15.3375 21.2587 15.7087 19.44 16.635L22.845 23.3175ZM19.5675 26.595C20.2865 25.1838 21.4338 24.0365 22.845 23.3175L19.44 16.635C16.6177 18.0731 14.3231 20.3677 12.885 23.19L19.5675 26.595ZM31.5525 67.5V60C29.5635 60.0004 27.6562 60.7909 26.25 62.1975L31.5525 67.5Z" fill="black"/>
<path d="M30 33.75H60M30 48.75H48.75" stroke="black" stroke-width="2" stroke-linecap="round" stroke-linejoin="round"/>
</svg>
