<svg width="90" height="90" viewBox="0 0 90 90" fill="none" xmlns="http://www.w3.org/2000/svg">
<path d="M45.375 69.5625L45 69.9375L44.5875 69.5625C26.775 53.4 15 42.7125 15 31.875C15 24.375 20.625 18.75 28.125 18.75C33.9 18.75 39.525 22.5 41.5125 27.6H48.4875C50.475 22.5 56.1 18.75 61.875 18.75C69.375 18.75 75 24.375 75 31.875C75 42.7125 63.225 53.4 45.375 69.5625ZM61.875 11.25C55.35 11.25 49.0875 14.2875 45 19.05C40.9125 14.2875 34.65 11.25 28.125 11.25C16.575 11.25 7.5 20.2875 7.5 31.875C7.5 46.0125 20.25 57.6 39.5625 75.1125L45 80.0625L50.4375 75.1125C69.75 57.6 82.5 46.0125 82.5 31.875C82.5 20.2875 73.425 11.25 61.875 11.25Z" fill="#1188BB"/>
</svg>
