<svg width="90" height="90" viewBox="0 0 90 90" fill="none" xmlns="http://www.w3.org/2000/svg">
<g clip-path="url(#clip0_29_70)">
<path d="M16 33.2222H80V19.8889H16V33.2222ZM56 82.1111V42.1111H40V82.1111H56ZM64 82.1111H80V42.1111H64V82.1111ZM32 82.1111V42.1111H16V82.1111H32ZM12 11H84C85.0609 11 86.0783 11.4683 86.8284 12.3017C87.5786 13.1352 88 14.2657 88 15.4444V86.5556C88 87.7343 87.5786 88.8648 86.8284 89.6983C86.0783 90.5318 85.0609 91 84 91H12C10.9391 91 9.92172 90.5318 9.17157 89.6983C8.42143 88.8648 8 87.7343 8 86.5556V15.4444C8 14.2657 8.42143 13.1352 9.17157 12.3017C9.92172 11.4683 10.9391 11 12 11Z" fill="black"/>
</g>
<defs>
<clipPath id="clip0_29_70">
<rect width="90" height="90" fill="white"/>
</clipPath>
</defs>
</svg>
