<svg width="90" height="90" viewBox="0 0 90 90" fill="none" xmlns="http://www.w3.org/2000/svg">
<path d="M44.685 56.6594L44.5 56.8501L44.2965 56.6594C35.509 48.4387 29.7 43.0027 29.7 37.4905C29.7 33.6757 32.475 30.8147 36.175 30.8147C39.024 30.8147 41.799 32.7221 42.7795 35.3161H46.2205C47.201 32.7221 49.976 30.8147 52.825 30.8147C56.525 30.8147 59.3 33.6757 59.3 37.4905C59.3 43.0027 53.491 48.4387 44.685 56.6594ZM52.825 27C49.606 27 46.5165 28.545 44.5 30.9673C42.4835 28.545 39.394 27 36.175 27C30.477 27 26 31.5967 26 37.4905C26 44.6812 32.29 50.5749 41.8175 59.4823L44.5 62L47.1825 59.4823C56.71 50.5749 63 44.6812 63 37.4905C63 31.5967 58.523 27 52.825 27Z" fill="#1188BB"/>
</svg>
