<svg width="408" height="113" viewBox="0 0 408 113" fill="none" xmlns="http://www.w3.org/2000/svg">
<g filter="url(#filter0_d_5_70)">
<mask id="path-1-outside-1_5_70" maskUnits="userSpaceOnUse" x="4" y="27" width="129" height="28" fill="black">
<rect fill="white" x="4" y="27" width="129" height="28"/>
<path d="M18.57 28.355C20.6987 28.355 22.5793 28.8717 24.212 29.905C25.8653 30.9177 27.1363 32.3333 28.025 34.152C28.9343 35.9707 29.389 38.027 29.389 40.321C29.389 42.677 28.6967 44.8573 27.312 46.862C25.948 48.846 24.243 50.427 22.197 51.605C20.1717 52.7623 18.229 53.341 16.369 53.341C15.4183 53.341 14.4573 53.2893 13.486 53.186C11.8947 53.0827 10.665 53.031 9.797 53.031H5.86V52.07L8.774 49.776V30.928L5.55 29.874L6.17 28.634H9.766C11.7293 28.634 13.641 28.572 15.501 28.448C16.9063 28.3653 17.9293 28.324 18.57 28.324V28.355ZM17.237 51.047C18.725 51.047 20.0787 50.6543 21.298 49.869C22.5173 49.063 23.468 47.9573 24.15 46.552C24.8527 45.126 25.204 43.5347 25.204 41.778C25.204 39.67 24.8733 37.7583 24.212 36.043C23.5507 34.307 22.538 32.9223 21.174 31.889C19.8307 30.8557 18.1567 30.339 16.152 30.339C14.8913 30.339 13.7237 30.711 12.649 31.455V50.272C13.9097 50.7887 15.439 51.047 17.237 51.047ZM43.8248 53.062C42.9982 53.2273 42.0062 53.31 40.8488 53.31C39.4848 53.31 38.2552 52.9587 37.1598 52.256C36.0852 51.5327 35.2378 50.5613 34.6178 49.342C34.0185 48.1227 33.7188 46.7793 33.7188 45.312C33.7188 43.7207 34.2045 42.2327 35.1758 40.848C36.1472 39.4427 37.3562 38.3267 38.8028 37.5C40.2702 36.6527 41.6858 36.229 43.0498 36.229C45.0132 36.229 46.5322 37.004 47.6068 38.554C48.7022 40.104 49.2498 42.15 49.2498 44.692H37.7798C37.9038 46.4487 38.3792 47.885 39.2058 49.001C40.0532 50.117 41.2002 50.675 42.6468 50.675C43.9902 50.675 45.9018 49.6313 48.3818 47.544L49.3118 48.722L43.8248 53.062ZM41.2518 38.833C39.0198 38.833 37.8522 40.3623 37.7488 43.421H45.0028C44.8168 42.305 44.6205 41.4577 44.4138 40.879C44.2278 40.2797 43.8868 39.794 43.3908 39.422C42.9155 39.0293 42.2025 38.833 41.2518 38.833ZM69.5418 37.5L61.6988 53H59.3428L54.5068 41.189L51.6238 39.515V38.554L56.9248 35.95L58.1028 40.631L61.8848 49.869L66.2558 40.786L62.1328 37.779L62.7528 36.539H69.5418V37.5ZM80.6349 36.229C81.4822 36.229 82.4639 36.353 83.5799 36.601C84.7166 36.8283 85.5329 37.0867 86.0289 37.376V42.15H84.8509C84.0449 41.1167 83.1149 40.3107 82.0609 39.732C81.0276 39.1327 79.9529 38.833 78.8369 38.833C77.8862 38.833 77.1629 39.2567 76.6669 40.104C76.1916 40.9513 75.9539 42.1913 75.9539 43.824C75.9539 45.7667 76.3776 47.3993 77.2249 48.722C78.0722 50.024 79.2812 50.675 80.8519 50.675C82.0299 50.675 83.7039 49.8277 85.8739 48.133L86.8039 49.311L82.0299 53.062C81.2032 53.2273 80.2112 53.31 79.0539 53.31C77.6899 53.31 76.4602 52.9587 75.3649 52.256C74.2902 51.5327 73.4429 50.5613 72.8229 49.342C72.2236 48.1227 71.9239 46.7793 71.9239 45.312C71.9239 43.7207 72.3682 42.2223 73.2569 40.817C74.1662 39.4117 75.3029 38.2957 76.6669 37.469C78.0309 36.6423 79.3536 36.229 80.6349 36.229ZM100.267 36.229C101.631 36.229 102.85 36.5907 103.925 37.314C105.02 38.0167 105.867 38.9777 106.467 40.197C107.087 41.4163 107.397 42.7597 107.397 44.227C107.397 45.8183 106.911 47.3167 105.94 48.722C104.968 50.1067 103.749 51.2227 102.282 52.07C100.835 52.8967 99.4296 53.31 98.0656 53.31C96.7016 53.31 95.472 52.9587 94.3766 52.256C93.302 51.5327 92.4546 50.5613 91.8346 49.342C91.2353 48.1227 90.9356 46.7793 90.9356 45.312C90.9356 43.7207 91.4213 42.2327 92.3926 40.848C93.364 39.4427 94.573 38.3267 96.0196 37.5C97.487 36.6527 98.9026 36.229 100.267 36.229ZM98.4686 38.833C96.1333 38.833 94.9656 40.4967 94.9656 43.824C94.9656 45.7873 95.3893 47.4303 96.2366 48.753C97.084 50.055 98.293 50.706 99.8636 50.706C102.199 50.706 103.367 49.032 103.367 45.684C103.367 43.7413 102.943 42.119 102.096 40.817C101.248 39.4943 100.039 38.833 98.4686 38.833ZM130.457 53.031H124.567V42.584C124.567 41.4473 124.392 40.6517 124.04 40.197C123.689 39.7423 123.059 39.515 122.149 39.515C121.467 39.515 120.785 39.639 120.103 39.887C119.442 40.135 118.657 40.6103 117.747 41.313V50.706L120.537 51.791L119.917 53.031H111.268V52.07L114.027 49.9V41.127L111.268 39.515V38.554L116.569 35.95L117.592 39.98L121.994 36.477C122.428 36.3117 122.997 36.229 123.699 36.229C125.105 36.229 126.221 36.663 127.047 37.531C127.874 38.3783 128.287 39.5357 128.287 41.003V50.675L131.077 51.791L130.457 53.031Z"/>
</mask>
<path d="M18.57 28.355C20.6987 28.355 22.5793 28.8717 24.212 29.905C25.8653 30.9177 27.1363 32.3333 28.025 34.152C28.9343 35.9707 29.389 38.027 29.389 40.321C29.389 42.677 28.6967 44.8573 27.312 46.862C25.948 48.846 24.243 50.427 22.197 51.605C20.1717 52.7623 18.229 53.341 16.369 53.341C15.4183 53.341 14.4573 53.2893 13.486 53.186C11.8947 53.0827 10.665 53.031 9.797 53.031H5.86V52.07L8.774 49.776V30.928L5.55 29.874L6.17 28.634H9.766C11.7293 28.634 13.641 28.572 15.501 28.448C16.9063 28.3653 17.9293 28.324 18.57 28.324V28.355ZM17.237 51.047C18.725 51.047 20.0787 50.6543 21.298 49.869C22.5173 49.063 23.468 47.9573 24.15 46.552C24.8527 45.126 25.204 43.5347 25.204 41.778C25.204 39.67 24.8733 37.7583 24.212 36.043C23.5507 34.307 22.538 32.9223 21.174 31.889C19.8307 30.8557 18.1567 30.339 16.152 30.339C14.8913 30.339 13.7237 30.711 12.649 31.455V50.272C13.9097 50.7887 15.439 51.047 17.237 51.047ZM43.8248 53.062C42.9982 53.2273 42.0062 53.31 40.8488 53.31C39.4848 53.31 38.2552 52.9587 37.1598 52.256C36.0852 51.5327 35.2378 50.5613 34.6178 49.342C34.0185 48.1227 33.7188 46.7793 33.7188 45.312C33.7188 43.7207 34.2045 42.2327 35.1758 40.848C36.1472 39.4427 37.3562 38.3267 38.8028 37.5C40.2702 36.6527 41.6858 36.229 43.0498 36.229C45.0132 36.229 46.5322 37.004 47.6068 38.554C48.7022 40.104 49.2498 42.15 49.2498 44.692H37.7798C37.9038 46.4487 38.3792 47.885 39.2058 49.001C40.0532 50.117 41.2002 50.675 42.6468 50.675C43.9902 50.675 45.9018 49.6313 48.3818 47.544L49.3118 48.722L43.8248 53.062ZM41.2518 38.833C39.0198 38.833 37.8522 40.3623 37.7488 43.421H45.0028C44.8168 42.305 44.6205 41.4577 44.4138 40.879C44.2278 40.2797 43.8868 39.794 43.3908 39.422C42.9155 39.0293 42.2025 38.833 41.2518 38.833ZM69.5418 37.5L61.6988 53H59.3428L54.5068 41.189L51.6238 39.515V38.554L56.9248 35.95L58.1028 40.631L61.8848 49.869L66.2558 40.786L62.1328 37.779L62.7528 36.539H69.5418V37.5ZM80.6349 36.229C81.4822 36.229 82.4639 36.353 83.5799 36.601C84.7166 36.8283 85.5329 37.0867 86.0289 37.376V42.15H84.8509C84.0449 41.1167 83.1149 40.3107 82.0609 39.732C81.0276 39.1327 79.9529 38.833 78.8369 38.833C77.8862 38.833 77.1629 39.2567 76.6669 40.104C76.1916 40.9513 75.9539 42.1913 75.9539 43.824C75.9539 45.7667 76.3776 47.3993 77.2249 48.722C78.0722 50.024 79.2812 50.675 80.8519 50.675C82.0299 50.675 83.7039 49.8277 85.8739 48.133L86.8039 49.311L82.0299 53.062C81.2032 53.2273 80.2112 53.31 79.0539 53.31C77.6899 53.31 76.4602 52.9587 75.3649 52.256C74.2902 51.5327 73.4429 50.5613 72.8229 49.342C72.2236 48.1227 71.9239 46.7793 71.9239 45.312C71.9239 43.7207 72.3682 42.2223 73.2569 40.817C74.1662 39.4117 75.3029 38.2957 76.6669 37.469C78.0309 36.6423 79.3536 36.229 80.6349 36.229ZM100.267 36.229C101.631 36.229 102.85 36.5907 103.925 37.314C105.02 38.0167 105.867 38.9777 106.467 40.197C107.087 41.4163 107.397 42.7597 107.397 44.227C107.397 45.8183 106.911 47.3167 105.94 48.722C104.968 50.1067 103.749 51.2227 102.282 52.07C100.835 52.8967 99.4296 53.31 98.0656 53.31C96.7016 53.31 95.472 52.9587 94.3766 52.256C93.302 51.5327 92.4546 50.5613 91.8346 49.342C91.2353 48.1227 90.9356 46.7793 90.9356 45.312C90.9356 43.7207 91.4213 42.2327 92.3926 40.848C93.364 39.4427 94.573 38.3267 96.0196 37.5C97.487 36.6527 98.9026 36.229 100.267 36.229ZM98.4686 38.833C96.1333 38.833 94.9656 40.4967 94.9656 43.824C94.9656 45.7873 95.3893 47.4303 96.2366 48.753C97.084 50.055 98.293 50.706 99.8636 50.706C102.199 50.706 103.367 49.032 103.367 45.684C103.367 43.7413 102.943 42.119 102.096 40.817C101.248 39.4943 100.039 38.833 98.4686 38.833ZM130.457 53.031H124.567V42.584C124.567 41.4473 124.392 40.6517 124.04 40.197C123.689 39.7423 123.059 39.515 122.149 39.515C121.467 39.515 120.785 39.639 120.103 39.887C119.442 40.135 118.657 40.6103 117.747 41.313V50.706L120.537 51.791L119.917 53.031H111.268V52.07L114.027 49.9V41.127L111.268 39.515V38.554L116.569 35.95L117.592 39.98L121.994 36.477C122.428 36.3117 122.997 36.229 123.699 36.229C125.105 36.229 126.221 36.663 127.047 37.531C127.874 38.3783 128.287 39.5357 128.287 41.003V50.675L131.077 51.791L130.457 53.031Z" fill="black"/>
<path d="M18.57 28.355H17.57V29.355H18.57V28.355ZM24.212 29.905L23.6772 30.75L23.6834 30.7539L23.6897 30.7578L24.212 29.905ZM28.025 34.152L27.1265 34.591L27.1306 34.5992L28.025 34.152ZM27.312 46.862L26.4892 46.2937L26.488 46.2955L27.312 46.862ZM22.197 51.605L22.6931 52.4732L22.696 52.4716L22.197 51.605ZM13.486 53.186L13.5918 52.1916L13.5713 52.1894L13.5508 52.1881L13.486 53.186ZM5.86 53.031H4.86V54.031H5.86V53.031ZM5.86 52.07L5.24144 51.2843L4.86 51.5845V52.07H5.86ZM8.774 49.776L9.39256 50.5617L9.774 50.2615V49.776H8.774ZM8.774 30.928H9.774V30.2028L9.08474 29.9775L8.774 30.928ZM5.55 29.874L4.65557 29.4268L4.13691 30.4641L5.23926 30.8245L5.55 29.874ZM6.17 28.634V27.634H5.55197L5.27557 28.1868L6.17 28.634ZM15.501 28.448L15.4423 27.4497L15.4345 27.4502L15.501 28.448ZM18.57 28.324H19.57V27.324H18.57V28.324ZM21.298 49.869L21.8395 50.7098L21.8494 50.7032L21.298 49.869ZM24.15 46.552L23.253 46.11L23.2503 46.1154L24.15 46.552ZM24.212 36.043L23.2775 36.399L23.2789 36.4027L24.212 36.043ZM21.174 31.889L20.5643 32.6816L20.5701 32.6861L21.174 31.889ZM12.649 31.455L12.0798 30.6328L11.649 30.931V31.455H12.649ZM12.649 50.272H11.649V50.9429L12.2698 51.1973L12.649 50.272ZM18.57 28.355V29.355C20.5293 29.355 22.2206 29.8281 23.6772 30.75L24.212 29.905L24.7468 29.06C22.9381 27.9153 20.8681 27.355 18.57 27.355V28.355ZM24.212 29.905L23.6897 30.7578C25.1735 31.6666 26.3175 32.9353 27.1265 34.591L28.025 34.152L28.9235 33.713C27.9552 31.7313 26.5572 30.1687 24.7343 29.0522L24.212 29.905ZM28.025 34.152L27.1306 34.5992C27.962 36.2621 28.389 38.1622 28.389 40.321H29.389H30.389C30.389 37.8918 29.9066 35.6792 28.9194 33.7048L28.025 34.152ZM29.389 40.321H28.389C28.389 42.4667 27.7627 44.45 26.4892 46.2937L27.312 46.862L28.1348 47.4303C29.6307 45.2647 30.389 42.8873 30.389 40.321H29.389ZM27.312 46.862L26.488 46.2955C25.2068 48.1589 23.612 49.6364 21.698 50.7384L22.197 51.605L22.696 52.4716C24.874 51.2176 26.6892 49.5331 28.136 47.4285L27.312 46.862ZM22.197 51.605L21.7009 50.7368C19.7888 51.8294 18.016 52.341 16.369 52.341V53.341V54.341C18.442 54.341 20.5546 53.6953 22.6931 52.4732L22.197 51.605ZM16.369 53.341V52.341C15.4546 52.341 14.5289 52.2913 13.5918 52.1916L13.486 53.186L13.3802 54.1804C14.3857 54.2874 15.382 54.341 16.369 54.341V53.341ZM13.486 53.186L13.5508 52.1881C11.9525 52.0843 10.6975 52.031 9.797 52.031V53.031V54.031C10.6325 54.031 11.8368 54.081 13.4212 54.1839L13.486 53.186ZM9.797 53.031V52.031H5.86V53.031V54.031H9.797V53.031ZM5.86 53.031H6.86V52.07H5.86H4.86V53.031H5.86ZM5.86 52.07L6.47856 52.8557L9.39256 50.5617L8.774 49.776L8.15544 48.9903L5.24144 51.2843L5.86 52.07ZM8.774 49.776H9.774V30.928H8.774H7.774V49.776H8.774ZM8.774 30.928L9.08474 29.9775L5.86074 28.9235L5.55 29.874L5.23926 30.8245L8.46326 31.8785L8.774 30.928ZM5.55 29.874L6.44443 30.3212L7.06443 29.0812L6.17 28.634L5.27557 28.1868L4.65557 29.4268L5.55 29.874ZM6.17 28.634V29.634H9.766V28.634V27.634H6.17V28.634ZM9.766 28.634V29.634C11.7504 29.634 13.6842 29.5713 15.5675 29.4458L15.501 28.448L15.4345 27.4502C13.5978 27.5727 11.7083 27.634 9.766 27.634V28.634ZM15.501 28.448L15.5597 29.4463C16.9629 29.3637 17.9609 29.324 18.57 29.324V28.324V27.324C17.8978 27.324 16.8498 27.3669 15.4423 27.4497L15.501 28.448ZM18.57 28.324H17.57V28.355H18.57H19.57V28.324H18.57ZM17.237 51.047V52.047C18.9118 52.047 20.4543 51.6019 21.8395 50.7097L21.298 49.869L20.7565 49.0283C19.703 49.7068 18.5382 50.047 17.237 50.047V51.047ZM21.298 49.869L21.8494 50.7032C23.2287 49.7915 24.2949 48.5438 25.0497 46.9886L24.15 46.552L23.2503 46.1154C22.6411 47.3709 21.8059 48.3345 20.7466 49.0348L21.298 49.869ZM24.15 46.552L25.047 46.994C25.8243 45.4166 26.204 43.6716 26.204 41.778H25.204H24.204C24.204 43.3977 23.881 44.8354 23.253 46.11L24.15 46.552ZM25.204 41.778H26.204C26.204 39.5648 25.8566 37.5289 25.1451 35.6833L24.212 36.043L23.2789 36.4027C23.89 37.9878 24.204 39.7752 24.204 41.778H25.204ZM24.212 36.043L25.1465 35.687C24.4244 33.7915 23.304 32.248 21.7779 31.0919L21.174 31.889L20.5701 32.6861C21.772 33.5966 22.677 34.8225 23.2775 36.399L24.212 36.043ZM21.174 31.889L21.7837 31.0964C20.2351 29.9051 18.3354 29.339 16.152 29.339V30.339V31.339C17.9779 31.339 19.4262 31.8062 20.5643 32.6816L21.174 31.889ZM16.152 30.339V29.339C14.6801 29.339 13.3152 29.7776 12.0798 30.6328L12.649 31.455L13.2182 32.2772C14.1322 31.6444 15.1026 31.339 16.152 31.339V30.339ZM12.649 31.455H11.649V50.272H12.649H13.649V31.455H12.649ZM12.649 50.272L12.2698 51.1973C13.6826 51.7763 15.3484 52.047 17.237 52.047V51.047V50.047C15.5296 50.047 14.1368 49.801 13.0282 49.3467L12.649 50.272ZM43.8248 53.062L44.0209 54.0426L44.2567 53.9954L44.4452 53.8463L43.8248 53.062ZM37.1598 52.256L36.6015 53.0856L36.6106 53.0917L36.6199 53.0977L37.1598 52.256ZM34.6178 49.342L33.7203 49.7832L33.7264 49.7952L34.6178 49.342ZM35.1758 40.848L35.9945 41.4223L35.9985 41.4166L35.1758 40.848ZM38.8028 37.5L39.299 38.3683L39.3029 38.366L38.8028 37.5ZM47.6068 38.554L46.785 39.1238L46.7902 39.1311L47.6068 38.554ZM49.2498 44.692V45.692H50.2498V44.692H49.2498ZM37.7798 44.692V43.692H36.7068L36.7823 44.7624L37.7798 44.692ZM39.2058 49.001L38.4022 49.5963L38.4094 49.6057L39.2058 49.001ZM48.3818 47.544L49.1667 46.9244L48.5273 46.1145L47.7379 46.7789L48.3818 47.544ZM49.3118 48.722L49.9322 49.5063L50.7158 48.8865L50.0967 48.1024L49.3118 48.722ZM37.7488 43.421L36.7494 43.3872L36.7145 44.421H37.7488V43.421ZM45.0028 43.421V44.421H46.1833L45.9892 43.2566L45.0028 43.421ZM44.4138 40.879L43.4588 41.1754L43.465 41.1955L43.4721 41.2153L44.4138 40.879ZM43.3908 39.422L42.7539 40.193L42.772 40.2079L42.7908 40.222L43.3908 39.422ZM43.8248 53.062L43.6287 52.0814C42.8855 52.2301 41.9628 52.31 40.8488 52.31V53.31V54.31C42.0495 54.31 43.1109 54.2246 44.0209 54.0426L43.8248 53.062ZM40.8488 53.31V52.31C39.6666 52.31 38.626 52.0085 37.6998 51.4143L37.1598 52.256L36.6199 53.0977C37.8843 53.9088 39.3031 54.31 40.8488 54.31V53.31ZM37.1598 52.256L37.7182 51.4264C36.7927 50.8035 36.0565 49.9651 35.5092 48.8888L34.6178 49.342L33.7264 49.7952C34.4191 51.1575 35.3776 52.2618 36.6015 53.0856L37.1598 52.256ZM34.6178 49.342L35.5153 48.9009C34.9887 47.8296 34.7188 46.6389 34.7188 45.312H33.7188H32.7188C32.7188 46.9198 33.0483 48.4158 33.7204 49.7831L34.6178 49.342ZM33.7188 45.312H34.7188C34.7188 43.9394 35.1333 42.6499 35.9945 41.4223L35.1758 40.848L34.3572 40.2737C33.2757 41.8154 32.7188 43.5019 32.7188 45.312H33.7188ZM35.1758 40.848L35.9985 41.4166C36.887 40.1311 37.9855 39.1188 39.299 38.3682L38.8028 37.5L38.3067 36.6318C36.7268 37.5345 35.4074 38.7542 34.3532 40.2794L35.1758 40.848ZM38.8028 37.5L39.3029 38.366C40.6547 37.5854 41.8992 37.229 43.0498 37.229V36.229V35.229C41.4725 35.229 39.8857 35.7199 38.3028 36.634L38.8028 37.5ZM43.0498 36.229V37.229C44.7012 37.229 45.9061 37.8561 46.785 39.1238L47.6068 38.554L48.4286 37.9842C47.1582 36.1519 45.3251 35.229 43.0498 35.229V36.229ZM47.6068 38.554L46.7902 39.1311C47.7317 40.4635 48.2498 42.2876 48.2498 44.692H49.2498H50.2498C50.2498 42.0124 49.6726 39.7445 48.4235 37.9769L47.6068 38.554ZM49.2498 44.692V43.692H37.7798V44.692V45.692H49.2498V44.692ZM37.7798 44.692L36.7823 44.7624C36.9161 46.6584 37.4356 48.2912 38.4023 49.5962L39.2058 49.001L40.0094 48.4058C39.3228 47.4788 38.8915 46.2389 38.7773 44.6216L37.7798 44.692ZM39.2058 49.001L38.4094 49.6057C39.4529 50.9801 40.8994 51.675 42.6468 51.675V50.675V49.675C41.501 49.675 40.6535 49.2539 40.0023 48.3963L39.2058 49.001ZM42.6468 50.675V51.675C43.5592 51.675 44.546 51.3275 45.5673 50.77C46.6025 50.2048 47.7569 49.377 49.0258 48.3091L48.3818 47.544L47.7379 46.7789C46.5268 47.7983 45.4853 48.5361 44.6089 49.0145C43.7185 49.5007 43.0778 49.675 42.6468 49.675V50.675ZM48.3818 47.544L47.5969 48.1636L48.5269 49.3416L49.3118 48.722L50.0967 48.1024L49.1667 46.9244L48.3818 47.544ZM49.3118 48.722L48.6915 47.9377L43.2045 52.2777L43.8248 53.062L44.4452 53.8463L49.9322 49.5063L49.3118 48.722ZM41.2518 38.833V37.833C39.8806 37.833 38.7121 38.319 37.9073 39.3731C37.1427 40.3745 36.8043 41.7634 36.7494 43.3872L37.7488 43.421L38.7483 43.4548C38.7967 42.0199 39.0938 41.1148 39.4969 40.5869C39.8597 40.1116 40.3911 39.833 41.2518 39.833V38.833ZM37.7488 43.421V44.421H45.0028V43.421V42.421H37.7488V43.421ZM45.0028 43.421L45.9892 43.2566C45.8001 42.1221 45.5923 41.2056 45.3556 40.5427L44.4138 40.879L43.4721 41.2153C43.6487 41.7098 43.8335 42.4879 44.0164 43.5854L45.0028 43.421ZM44.4138 40.879L45.3689 40.5826C45.1213 39.7848 44.6574 39.1219 43.9908 38.622L43.3908 39.422L42.7908 40.222C43.1162 40.466 43.3343 40.7745 43.4588 41.1754L44.4138 40.879ZM43.3908 39.422L44.0277 38.651C43.2985 38.0487 42.3151 37.833 41.2518 37.833V38.833V39.833C42.0899 39.833 42.5325 40.01 42.7539 40.193L43.3908 39.422ZM69.5417 37.5L70.434 37.9515L70.5417 37.7386V37.5H69.5417ZM61.6987 53V54H62.3135L62.591 53.4515L61.6987 53ZM59.3428 53L58.4173 53.3789L58.6716 54H59.3428V53ZM54.5068 41.189L55.4322 40.8101L55.3032 40.4951L55.0089 40.3242L54.5068 41.189ZM51.6237 39.515H50.6237V40.0907L51.1216 40.3798L51.6237 39.515ZM51.6237 38.554L51.1828 37.6564L50.6237 37.9311V38.554H51.6237ZM56.9248 35.95L57.8945 35.706L57.5929 34.5076L56.4838 35.0524L56.9248 35.95ZM58.1027 40.631L57.133 40.875L57.1503 40.944L57.1773 41.0099L58.1027 40.631ZM61.8848 49.869L60.9593 50.2479L61.811 52.3283L62.7858 50.3026L61.8848 49.869ZM66.2558 40.786L67.1568 41.2196L67.5181 40.4689L66.845 39.9781L66.2558 40.786ZM62.1328 37.779L61.2383 37.3318L60.86 38.0885L61.5435 38.5869L62.1328 37.779ZM62.7528 36.539V35.539H62.1347L61.8583 36.0918L62.7528 36.539ZM69.5417 36.539H70.5417V35.539H69.5417V36.539ZM69.5417 37.5L68.6495 37.0485L60.8065 52.5485L61.6987 53L62.591 53.4515L70.434 37.9515L69.5417 37.5ZM61.6987 53V52H59.3428V53V54H61.6987V53ZM59.3428 53L60.2682 52.6211L55.4322 40.8101L54.5068 41.189L53.5813 41.5679L58.4173 53.3789L59.3428 53ZM54.5068 41.189L55.0089 40.3242L52.1259 38.6502L51.6237 39.515L51.1216 40.3798L54.0046 42.0538L54.5068 41.189ZM51.6237 39.515H52.6237V38.554H51.6237H50.6237V39.515H51.6237ZM51.6237 38.554L52.0647 39.4516L57.3657 36.8476L56.9248 35.95L56.4838 35.0524L51.1828 37.6564L51.6237 38.554ZM56.9248 35.95L55.955 36.194L57.133 40.875L58.1027 40.631L59.0725 40.387L57.8945 35.706L56.9248 35.95ZM58.1027 40.631L57.1773 41.0099L60.9593 50.2479L61.8848 49.869L62.8102 49.4901L59.0282 40.2521L58.1027 40.631ZM61.8848 49.869L62.7858 50.3026L67.1568 41.2196L66.2558 40.786L65.3547 40.3524L60.9837 49.4354L61.8848 49.869ZM66.2558 40.786L66.845 39.9781L62.722 36.9711L62.1328 37.779L61.5435 38.5869L65.6665 41.5939L66.2558 40.786ZM62.1328 37.779L63.0272 38.2262L63.6472 36.9862L62.7528 36.539L61.8583 36.0918L61.2383 37.3318L62.1328 37.779ZM62.7528 36.539V37.539H69.5417V36.539V35.539H62.7528V36.539ZM69.5417 36.539H68.5417V37.5H69.5417H70.5417V36.539H69.5417ZM83.5799 36.601L83.363 37.5772L83.3734 37.5795L83.3838 37.5816L83.5799 36.601ZM86.0289 37.376H87.0289V36.8016L86.5328 36.5122L86.0289 37.376ZM86.0289 42.15V43.15H87.0289V42.15H86.0289ZM84.8509 42.15L84.0624 42.765L84.3627 43.15H84.8509V42.15ZM82.0609 39.732L81.5592 40.597L81.5694 40.6029L81.5797 40.6086L82.0609 39.732ZM76.6669 40.104L75.8039 39.5988L75.7993 39.6067L75.7948 39.6147L76.6669 40.104ZM77.2249 48.722L76.3829 49.2614L76.3868 49.2675L77.2249 48.722ZM85.8739 48.133L86.6588 47.5134L86.0424 46.7326L85.2584 47.3449L85.8739 48.133ZM86.8039 49.311L87.4217 50.0973L88.2099 49.4781L87.5888 48.6914L86.8039 49.311ZM82.0299 53.062L82.226 54.0426L82.4601 53.9958L82.6477 53.8483L82.0299 53.062ZM75.3649 52.256L74.8065 53.0856L74.8157 53.0917L74.825 53.0977L75.3649 52.256ZM72.8229 49.342L71.9254 49.7832L71.9315 49.7952L72.8229 49.342ZM73.2569 40.817L72.4173 40.2737L72.4117 40.2825L73.2569 40.817ZM76.6669 37.469L76.1486 36.6138L76.6669 37.469ZM80.6349 36.229V37.229C81.389 37.229 82.2952 37.3399 83.363 37.5772L83.5799 36.601L83.7968 35.6248C82.6326 35.3661 81.5755 35.229 80.6349 35.229V36.229ZM83.5799 36.601L83.3838 37.5816C84.4992 37.8047 85.179 38.0379 85.525 38.2398L86.0289 37.376L86.5328 36.5122C85.8868 36.1354 84.9339 35.852 83.776 35.6204L83.5799 36.601ZM86.0289 37.376H85.0289V42.15H86.0289H87.0289V37.376H86.0289ZM86.0289 42.15V41.15H84.8509V42.15V43.15H86.0289V42.15ZM84.8509 42.15L85.6394 41.535C84.7574 40.4042 83.7256 39.5052 82.5422 38.8554L82.0609 39.732L81.5797 40.6086C82.5042 41.1162 83.3324 41.8291 84.0624 42.765L84.8509 42.15ZM82.0609 39.732L82.5626 38.867C81.388 38.1857 80.1415 37.833 78.8369 37.833V38.833V39.833C79.7643 39.833 80.6672 40.0797 81.5592 40.597L82.0609 39.732ZM78.8369 38.833V37.833C77.517 37.833 76.4721 38.4574 75.8039 39.5988L76.6669 40.104L77.5299 40.6092C77.8538 40.056 78.2555 39.833 78.8369 39.833V38.833ZM76.6669 40.104L75.7948 39.6147C75.1966 40.681 74.9539 42.1228 74.9539 43.824H75.9539H76.9539C76.9539 42.2599 77.1865 41.2217 77.539 40.5933L76.6669 40.104ZM75.9539 43.824H74.9539C74.9539 45.9126 75.4104 47.7434 76.3829 49.2614L77.2249 48.722L78.0669 48.1826C77.3447 47.0552 76.9539 45.6208 76.9539 43.824H75.9539ZM77.2249 48.722L76.3868 49.2675C77.4211 50.8568 78.9475 51.675 80.8519 51.675V50.675V49.675C79.615 49.675 78.7234 49.1912 78.063 48.1765L77.2249 48.722ZM80.8519 50.675V51.675C81.664 51.675 82.5398 51.3887 83.4425 50.9317C84.3574 50.4686 85.3746 49.7917 86.4894 48.9211L85.8739 48.133L85.2584 47.3449C84.2032 48.1689 83.2984 48.763 82.5393 49.1473C81.768 49.5377 81.2178 49.675 80.8519 49.675V50.675ZM85.8739 48.133L85.089 48.7526L86.019 49.9306L86.8039 49.311L87.5888 48.6914L86.6588 47.5134L85.8739 48.133ZM86.8039 49.311L86.1861 48.5247L81.4121 52.2757L82.0299 53.062L82.6477 53.8483L87.4217 50.0973L86.8039 49.311ZM82.0299 53.062L81.8338 52.0814C81.0905 52.2301 80.1679 52.31 79.0539 52.31V53.31V54.31C80.2546 54.31 81.3159 54.2246 82.226 54.0426L82.0299 53.062ZM79.0539 53.31V52.31C77.8716 52.31 76.8311 52.0085 75.9049 51.4143L75.3649 52.256L74.825 53.0977C76.0894 53.9088 77.5082 54.31 79.0539 54.31V53.31ZM75.3649 52.256L75.9233 51.4264C74.9978 50.8035 74.2616 49.9651 73.7143 48.8888L72.8229 49.342L71.9315 49.7952C72.6242 51.1575 73.5827 52.2618 74.8065 53.0856L75.3649 52.256ZM72.8229 49.342L73.7204 48.9009C73.1938 47.8296 72.9239 46.6389 72.9239 45.312H71.9239H70.9239C70.9239 46.9198 71.2534 48.4158 71.9255 49.7831L72.8229 49.342ZM71.9239 45.312H72.9239C72.9239 43.9186 73.3098 42.6044 74.1021 41.3515L73.2569 40.817L72.4117 40.2825C71.4267 41.8403 70.9239 43.5227 70.9239 45.312H71.9239ZM73.2569 40.817L74.0965 41.3603C74.9278 40.0754 75.9569 39.0686 77.1852 38.3242L76.6669 37.469L76.1486 36.6138C74.6489 37.5227 73.4046 38.7479 72.4173 40.2738L73.2569 40.817ZM76.6669 37.469L77.1852 38.3242C78.4309 37.5692 79.5762 37.229 80.6349 37.229V36.229V35.229C79.131 35.229 77.6309 35.7155 76.1486 36.6138L76.6669 37.469ZM103.925 37.314L103.366 38.1436L103.375 38.1497L103.385 38.1557L103.925 37.314ZM106.467 40.197L105.569 40.6382L105.575 40.6502L106.467 40.197ZM105.94 48.722L106.758 49.2963L106.762 49.2906L105.94 48.722ZM102.282 52.07L102.778 52.9383L102.782 52.936L102.282 52.07ZM94.3766 52.256L93.8183 53.0856L93.8274 53.0917L93.8367 53.0977L94.3766 52.256ZM91.8346 49.342L90.9371 49.7832L90.9432 49.7952L91.8346 49.342ZM92.3926 40.848L93.2113 41.4223L93.2153 41.4166L92.3926 40.848ZM96.0196 37.5L96.5158 38.3683L96.5197 38.366L96.0196 37.5ZM96.2366 48.753L95.3946 49.2924L95.3985 49.2985L96.2366 48.753ZM102.096 40.817L101.254 41.3564L101.257 41.3625L102.096 40.817ZM100.267 36.229V37.229C101.443 37.229 102.466 37.5374 103.366 38.1436L103.925 37.314L104.483 36.4844C103.234 35.644 101.818 35.229 100.267 35.229V36.229ZM103.925 37.314L103.385 38.1557C104.32 38.7555 105.047 39.5749 105.569 40.6381L106.467 40.197L107.364 39.7559C106.688 38.3805 105.72 37.2779 104.465 36.4723L103.925 37.314ZM106.467 40.197L105.575 40.6502C106.119 41.7191 106.397 42.9055 106.397 44.227H107.397H108.397C108.397 42.6139 108.055 41.1136 107.358 39.7438L106.467 40.197ZM107.397 44.227H106.397C106.397 45.6 105.982 46.9023 105.117 48.1534L105.94 48.722L106.762 49.2906C107.84 47.7311 108.397 46.0367 108.397 44.227H107.397ZM105.94 48.722L105.121 48.1477C104.233 49.4129 103.123 50.4294 101.782 51.204L102.282 52.07L102.782 52.936C104.375 52.0159 105.703 50.8005 106.758 49.2963L105.94 48.722ZM102.282 52.07L101.785 51.2018C100.457 51.9611 99.2209 52.31 98.0656 52.31V53.31V54.31C99.6384 54.31 101.213 53.8322 102.778 52.9382L102.282 52.07ZM98.0656 53.31V52.31C96.8834 52.31 95.8428 52.0085 94.9166 51.4143L94.3766 52.256L93.8367 53.0977C95.1011 53.9088 96.5199 54.31 98.0656 54.31V53.31ZM94.3766 52.256L94.935 51.4264C94.0095 50.8035 93.2733 49.9651 92.726 48.8888L91.8346 49.342L90.9432 49.7952C91.6359 51.1575 92.5944 52.2618 93.8183 53.0856L94.3766 52.256ZM91.8346 49.342L92.7321 48.9009C92.2055 47.8296 91.9356 46.6389 91.9356 45.312H90.9356H89.9356C89.9356 46.9198 90.2651 48.4158 90.9372 49.7831L91.8346 49.342ZM90.9356 45.312H91.9356C91.9356 43.9394 92.3501 42.6499 93.2113 41.4223L92.3926 40.848L91.574 40.2737C90.4925 41.8154 89.9356 43.5019 89.9356 45.312H90.9356ZM92.3926 40.848L93.2153 41.4166C94.1038 40.1311 95.2023 39.1188 96.5158 38.3682L96.0196 37.5L95.5235 36.6318C93.9436 37.5345 92.6242 38.7542 91.57 40.2794L92.3926 40.848ZM96.0196 37.5L96.5197 38.366C97.8715 37.5854 99.116 37.229 100.267 37.229V36.229V35.229C98.6893 35.229 97.1025 35.7199 95.5196 36.634L96.0196 37.5ZM98.4686 38.833V37.833C97.0311 37.833 95.8239 38.3649 95.0229 39.5063C94.2672 40.583 93.9656 42.074 93.9656 43.824H94.9656H95.9656C95.9656 42.2467 96.2479 41.2422 96.6599 40.6552C97.0265 40.1329 97.5708 39.833 98.4686 39.833V38.833ZM94.9656 43.824H93.9656C93.9656 45.9309 94.4211 47.7728 95.3946 49.2924L96.2366 48.753L97.0787 48.2136C96.3575 47.0878 95.9656 45.6438 95.9656 43.824H94.9656ZM96.2366 48.753L95.3985 49.2985C96.4328 50.8878 97.9592 51.706 99.8636 51.706V50.706V49.706C98.6267 49.706 97.7351 49.2222 97.0748 48.2075L96.2366 48.753ZM99.8636 50.706V51.706C101.304 51.706 102.511 51.1695 103.311 50.0226C104.065 48.9412 104.367 47.4435 104.367 45.684H103.367H102.367C102.367 47.2725 102.084 48.2858 101.671 48.8784C101.303 49.4055 100.759 49.706 99.8636 49.706V50.706ZM103.367 45.684H104.367C104.367 43.5962 103.91 41.7722 102.934 40.2715L102.096 40.817L101.257 41.3625C101.976 42.4658 102.367 43.8865 102.367 45.684H103.367ZM102.096 40.817L102.938 40.2776C101.906 38.6679 100.38 37.833 98.4686 37.833V38.833V39.833C99.6984 39.833 100.59 40.3207 101.254 41.3564L102.096 40.817ZM130.457 53.031V54.031H131.076L131.352 53.4782L130.457 53.031ZM124.567 53.031H123.567V54.031H124.567V53.031ZM124.04 40.197L123.249 40.8084V40.8084L124.04 40.197ZM120.103 39.887L119.762 38.9472L119.752 38.9507L120.103 39.887ZM117.747 41.313L117.136 40.5217L116.747 40.822V41.313H117.747ZM117.747 50.706H116.747V51.3901L117.385 51.638L117.747 50.706ZM120.537 51.791L121.432 52.2382L121.923 51.2567L120.9 50.859L120.537 51.791ZM119.917 53.031V54.031H120.536L120.812 53.4782L119.917 53.031ZM111.268 53.031H110.268V54.031H111.268V53.031ZM111.268 52.07L110.65 51.284L110.268 51.5843V52.07H111.268ZM114.027 49.9L114.646 50.686L115.027 50.3857V49.9H114.027ZM114.027 41.127H115.027V40.5531L114.532 40.2636L114.027 41.127ZM111.268 39.515H110.268V40.0889L110.764 40.3784L111.268 39.515ZM111.268 38.554L110.828 37.6564L110.268 37.9311V38.554H111.268ZM116.569 35.95L117.539 35.704L117.235 34.5088L116.129 35.0524L116.569 35.95ZM117.592 39.98L116.623 40.226L117.004 41.7263L118.215 40.7625L117.592 39.98ZM121.994 36.477L121.638 35.5425L121.493 35.5978L121.372 35.6945L121.994 36.477ZM127.047 37.531L126.323 38.2207L126.332 38.2293L127.047 37.531ZM128.287 50.675H127.287V51.352L127.916 51.6035L128.287 50.675ZM131.077 51.791L131.972 52.2382L132.458 51.2662L131.449 50.8625L131.077 51.791ZM130.457 53.031V52.031H124.567V53.031V54.031H130.457V53.031ZM124.567 53.031H125.567V42.584H124.567H123.567V53.031H124.567ZM124.567 42.584H125.567C125.567 41.4087 125.399 40.3192 124.832 39.5856L124.04 40.197L123.249 40.8084C123.385 40.9841 123.567 41.486 123.567 42.584H124.567ZM124.04 40.197L124.832 39.5856C124.202 38.771 123.187 38.515 122.149 38.515V39.515V40.515C122.931 40.515 123.176 40.7137 123.249 40.8084L124.04 40.197ZM122.149 39.515V38.515C121.344 38.515 120.546 38.6619 119.762 38.9472L120.103 39.887L120.445 40.8268C121.025 40.6161 121.591 40.515 122.149 40.515V39.515ZM120.103 39.887L119.752 38.9507C118.958 39.2487 118.081 39.7911 117.136 40.5217L117.747 41.313L118.359 42.1043C119.232 41.4295 119.927 41.0213 120.455 40.8233L120.103 39.887ZM117.747 41.313H116.747V50.706H117.747H118.747V41.313H117.747ZM117.747 50.706L117.385 51.638L120.175 52.723L120.537 51.791L120.9 50.859L118.11 49.774L117.747 50.706ZM120.537 51.791L119.643 51.3438L119.023 52.5838L119.917 53.031L120.812 53.4782L121.432 52.2382L120.537 51.791ZM119.917 53.031V52.031H111.268V53.031V54.031H119.917V53.031ZM111.268 53.031H112.268V52.07H111.268H110.268V53.031H111.268ZM111.268 52.07L111.887 52.856L114.646 50.686L114.027 49.9L113.409 49.114L110.65 51.284L111.268 52.07ZM114.027 49.9H115.027V41.127H114.027H113.027V49.9H114.027ZM114.027 41.127L114.532 40.2636L111.773 38.6516L111.268 39.515L110.764 40.3784L113.523 41.9904L114.027 41.127ZM111.268 39.515H112.268V38.554H111.268H110.268V39.515H111.268ZM111.268 38.554L111.709 39.4516L117.01 36.8476L116.569 35.95L116.129 35.0524L110.828 37.6564L111.268 38.554ZM116.569 35.95L115.6 36.196L116.623 40.226L117.592 39.98L118.562 39.734L117.539 35.704L116.569 35.95ZM117.592 39.98L118.215 40.7625L122.617 37.2595L121.994 36.477L121.372 35.6945L116.97 39.1975L117.592 39.98ZM121.994 36.477L122.35 37.4115C122.628 37.3057 123.062 37.229 123.699 37.229V36.229V35.229C122.931 35.229 122.229 35.3176 121.638 35.5425L121.994 36.477ZM123.699 36.229V37.229C124.882 37.229 125.718 37.5851 126.323 38.2207L127.047 37.531L127.772 36.8413C126.724 35.7409 125.327 35.229 123.699 35.229V36.229ZM127.047 37.531L126.332 38.2293C126.935 38.8475 127.287 39.7307 127.287 41.003H128.287H129.287C129.287 39.3407 128.814 37.9092 127.763 36.8327L127.047 37.531ZM128.287 41.003H127.287V50.675H128.287H129.287V41.003H128.287ZM128.287 50.675L127.916 51.6035L130.706 52.7195L131.077 51.791L131.449 50.8625L128.659 49.7465L128.287 50.675ZM131.077 51.791L130.183 51.3438L129.563 52.5838L130.457 53.031L131.352 53.4782L131.972 52.2382L131.077 51.791Z" fill="black" mask="url(#path-1-outside-1_5_70)"/>
</g>
<defs>
<filter id="filter0_d_5_70" x="0.136719" y="27.324" width="136.321" height="35.017" filterUnits="userSpaceOnUse" color-interpolation-filters="sRGB">
<feFlood flood-opacity="0" result="BackgroundImageFix"/>
<feColorMatrix in="SourceAlpha" type="matrix" values="0 0 0 0 0 0 0 0 0 0 0 0 0 0 0 0 0 0 127 0" result="hardAlpha"/>
<feOffset dy="4"/>
<feGaussianBlur stdDeviation="2"/>
<feComposite in2="hardAlpha" operator="out"/>
<feColorMatrix type="matrix" values="0 0 0 0 0 0 0 0 0 0 0 0 0 0 0 0 0 0 0.25 0"/>
<feBlend mode="normal" in2="BackgroundImageFix" result="effect1_dropShadow_5_70"/>
<feBlend mode="normal" in="SourceGraphic" in2="effect1_dropShadow_5_70" result="shape"/>
</filter>
</defs>
</svg>
