<svg width="90" height="90" viewBox="0 0 90 90" fill="none" xmlns="http://www.w3.org/2000/svg">
<g clip-path="url(#clip0_29_71)">
<path fill-rule="evenodd" clip-rule="evenodd" d="M4.50006 49.5C0.360064 49.5 -1.58394 44.3835 1.51206 41.6385L42.0121 5.6385C42.8356 4.9072 43.8987 4.5033 45.0001 4.5033C46.1014 4.5033 47.1645 4.9072 47.9881 5.6385L88.4881 41.6385C91.5841 44.3835 89.6401 49.5 85.5001 49.5H81.0001V81C81.0001 82.1935 80.526 83.3381 79.682 84.182C78.8381 85.0259 77.6935 85.5 76.5001 85.5H13.5001C12.3066 85.5 11.162 85.0259 10.3181 84.182C9.47417 83.3381 9.00006 82.1935 9.00006 81V49.5H4.50006ZM31.5001 76.5V54C31.5001 52.8065 31.9742 51.6619 32.8181 50.818C33.662 49.9741 34.8066 49.5 36.0001 49.5H54.0001C55.1935 49.5 56.3381 49.9741 57.182 50.818C58.026 51.6619 58.5001 52.8065 58.5001 54V76.5H72.0001V45C71.9999 44.1994 72.2134 43.4133 72.6184 42.7228C73.0234 42.0322 73.6053 41.4622 74.3041 41.0715L45.0001 15.0165L15.6961 41.0715C16.3948 41.4622 16.9767 42.0322 17.3817 42.7228C17.7867 43.4133 18.0002 44.1994 18.0001 45V76.5H31.5001ZM40.5001 76.5V58.5H49.5001V76.5H40.5001Z" fill="black"/>
</g>
<defs>
<clipPath id="clip0_29_71">
<rect width="90" height="90" fill="white"/>
</clipPath>
</defs>
</svg>
