<svg width="90" height="82" viewBox="0 0 90 82" fill="none" xmlns="http://www.w3.org/2000/svg">
<path fill-rule="evenodd" clip-rule="evenodd" d="M4.50006 45.5C0.360064 45.5 -1.58394 40.3835 1.51206 37.6385L42.0121 1.6385C42.8356 0.907197 43.8987 0.503296 45.0001 0.503296C46.1014 0.503296 47.1645 0.907197 47.9881 1.6385L88.4881 37.6385C91.5841 40.3835 89.6401 45.5 85.5001 45.5H81.0001V77C81.0001 78.1935 80.526 79.3381 79.682 80.182C78.8381 81.0259 77.6935 81.5 76.5001 81.5H13.5001C12.3066 81.5 11.162 81.0259 10.3181 80.182C9.47417 79.3381 9.00006 78.1935 9.00006 77V45.5H4.50006ZM31.5001 72.5V50C31.5001 48.8065 31.9742 47.6619 32.8181 46.818C33.662 45.9741 34.8066 45.5 36.0001 45.5H54.0001C55.1935 45.5 56.3381 45.9741 57.182 46.818C58.026 47.6619 58.5001 48.8065 58.5001 50V72.5H72.0001V41C71.9999 40.1994 72.2134 39.4133 72.6184 38.7228C73.0234 38.0322 73.6053 37.4622 74.3041 37.0715L45.0001 11.0165L15.6961 37.0715C16.3948 37.4622 16.9767 38.0322 17.3817 38.7228C17.7867 39.4133 18.0002 40.1994 18.0001 41V72.5H31.5001ZM40.5001 72.5V54.5H49.5001V72.5H40.5001Z" fill="#1188BB"/>
</svg>
