<svg width="122" height="33" viewBox="0 0 122 33" fill="none" xmlns="http://www.w3.org/2000/svg">
<g filter="url(#filter0_d_5_77)">
<mask id="path-1-outside-1_5_77" maskUnits="userSpaceOnUse" x="4" y="0" width="114" height="25" fill="black">
<rect fill="white" x="4" width="114" height="25"/>
<path d="M17.69 1.535C19.544 1.535 21.182 1.985 22.604 2.885C24.044 3.767 25.151 5 25.925 6.584C26.717 8.168 27.113 9.959 27.113 11.957C27.113 14.009 26.51 15.908 25.304 17.654C24.116 19.382 22.631 20.759 20.849 21.785C19.085 22.793 17.393 23.297 15.773 23.297C14.945 23.297 14.108 23.252 13.262 23.162C11.876 23.072 10.805 23.027 10.049 23.027H6.62V22.19L9.158 20.192V3.776L6.35 2.858L6.89 1.778H10.022C11.732 1.778 13.397 1.724 15.017 1.616C16.241 1.544 17.132 1.508 17.69 1.508V1.535ZM16.529 21.299C17.825 21.299 19.004 20.957 20.066 20.273C21.128 19.571 21.956 18.608 22.55 17.384C23.162 16.142 23.468 14.756 23.468 13.226C23.468 11.39 23.18 9.725 22.604 8.231C22.028 6.719 21.146 5.513 19.958 4.613C18.788 3.713 17.33 3.263 15.584 3.263C14.486 3.263 13.469 3.587 12.533 4.235V20.624C13.631 21.074 14.963 21.299 16.529 21.299ZM39.6861 23.054C38.9661 23.198 38.1021 23.27 37.0941 23.27C35.9061 23.27 34.8351 22.964 33.8811 22.352C32.9451 21.722 32.2071 20.876 31.6671 19.814C31.1451 18.752 30.8841 17.582 30.8841 16.304C30.8841 14.918 31.3071 13.622 32.1531 12.416C32.9991 11.192 34.0521 10.22 35.3121 9.5C36.5901 8.762 37.8231 8.393 39.0111 8.393C40.7211 8.393 42.0441 9.068 42.9801 10.418C43.9341 11.768 44.4111 13.55 44.4111 15.764H34.4211C34.5291 17.294 34.9431 18.545 35.6631 19.517C36.4011 20.489 37.4001 20.975 38.6601 20.975C39.8301 20.975 41.4951 20.066 43.6551 18.248L44.4651 19.274L39.6861 23.054ZM37.4451 10.661C35.5011 10.661 34.4841 11.993 34.3941 14.657H40.7121C40.5501 13.685 40.3791 12.947 40.1991 12.443C40.0371 11.921 39.7401 11.498 39.3081 11.174C38.8941 10.832 38.2731 10.661 37.4451 10.661ZM62.0848 9.5L55.2538 23H53.2018L48.9898 12.713L46.4788 11.255V10.418L51.0958 8.15L52.1218 12.227L55.4158 20.273L59.2228 12.362L55.6318 9.743L56.1718 8.663H62.0848V9.5ZM71.7465 8.393C72.4845 8.393 73.3395 8.501 74.3115 8.717C75.3015 8.915 76.0125 9.14 76.4445 9.392V13.55H75.4185C74.7165 12.65 73.9065 11.948 72.9885 11.444C72.0885 10.922 71.1525 10.661 70.1805 10.661C69.3525 10.661 68.7225 11.03 68.2905 11.768C67.8765 12.506 67.6695 13.586 67.6695 15.008C67.6695 16.7 68.0385 18.122 68.7765 19.274C69.5145 20.408 70.5675 20.975 71.9355 20.975C72.9615 20.975 74.4195 20.237 76.3095 18.761L77.1195 19.787L72.9615 23.054C72.2415 23.198 71.3775 23.27 70.3695 23.27C69.1815 23.27 68.1105 22.964 67.1565 22.352C66.2205 21.722 65.4825 20.876 64.9425 19.814C64.4205 18.752 64.1595 17.582 64.1595 16.304C64.1595 14.918 64.5465 13.613 65.3205 12.389C66.1125 11.165 67.1025 10.193 68.2905 9.473C69.4785 8.753 70.6305 8.393 71.7465 8.393ZM88.8451 8.393C90.0331 8.393 91.0951 8.708 92.0311 9.338C92.9851 9.95 93.7231 10.787 94.2451 11.849C94.7851 12.911 95.0551 14.081 95.0551 15.359C95.0551 16.745 94.6321 18.05 93.7861 19.274C92.9401 20.48 91.8781 21.452 90.6001 22.19C89.3401 22.91 88.1161 23.27 86.9281 23.27C85.7401 23.27 84.6691 22.964 83.7151 22.352C82.7791 21.722 82.0411 20.876 81.5011 19.814C80.9791 18.752 80.7181 17.582 80.7181 16.304C80.7181 14.918 81.1411 13.622 81.9871 12.416C82.8331 11.192 83.8861 10.22 85.1461 9.5C86.4241 8.762 87.6571 8.393 88.8451 8.393ZM87.2791 10.661C85.2451 10.661 84.2281 12.11 84.2281 15.008C84.2281 16.718 84.5971 18.149 85.3351 19.301C86.0731 20.435 87.1261 21.002 88.4941 21.002C90.5281 21.002 91.5451 19.544 91.5451 16.628C91.5451 14.936 91.1761 13.523 90.4381 12.389C89.7001 11.237 88.6471 10.661 87.2791 10.661ZM115.14 23.027H110.01V13.928C110.01 12.938 109.857 12.245 109.551 11.849C109.245 11.453 108.696 11.255 107.904 11.255C107.31 11.255 106.716 11.363 106.122 11.579C105.546 11.795 104.862 12.209 104.07 12.821V21.002L106.5 21.947L105.96 23.027H98.4274V22.19L100.83 20.3V12.659L98.4274 11.255V10.418L103.044 8.15L103.935 11.66L107.769 8.609C108.147 8.465 108.642 8.393 109.254 8.393C110.478 8.393 111.45 8.771 112.17 9.527C112.89 10.265 113.25 11.273 113.25 12.551V20.975L115.68 21.947L115.14 23.027Z"/>
</mask>
<path d="M17.69 1.535C19.544 1.535 21.182 1.985 22.604 2.885C24.044 3.767 25.151 5 25.925 6.584C26.717 8.168 27.113 9.959 27.113 11.957C27.113 14.009 26.51 15.908 25.304 17.654C24.116 19.382 22.631 20.759 20.849 21.785C19.085 22.793 17.393 23.297 15.773 23.297C14.945 23.297 14.108 23.252 13.262 23.162C11.876 23.072 10.805 23.027 10.049 23.027H6.62V22.19L9.158 20.192V3.776L6.35 2.858L6.89 1.778H10.022C11.732 1.778 13.397 1.724 15.017 1.616C16.241 1.544 17.132 1.508 17.69 1.508V1.535ZM16.529 21.299C17.825 21.299 19.004 20.957 20.066 20.273C21.128 19.571 21.956 18.608 22.55 17.384C23.162 16.142 23.468 14.756 23.468 13.226C23.468 11.39 23.18 9.725 22.604 8.231C22.028 6.719 21.146 5.513 19.958 4.613C18.788 3.713 17.33 3.263 15.584 3.263C14.486 3.263 13.469 3.587 12.533 4.235V20.624C13.631 21.074 14.963 21.299 16.529 21.299ZM39.6861 23.054C38.9661 23.198 38.1021 23.27 37.0941 23.27C35.9061 23.27 34.8351 22.964 33.8811 22.352C32.9451 21.722 32.2071 20.876 31.6671 19.814C31.1451 18.752 30.8841 17.582 30.8841 16.304C30.8841 14.918 31.3071 13.622 32.1531 12.416C32.9991 11.192 34.0521 10.22 35.3121 9.5C36.5901 8.762 37.8231 8.393 39.0111 8.393C40.7211 8.393 42.0441 9.068 42.9801 10.418C43.9341 11.768 44.4111 13.55 44.4111 15.764H34.4211C34.5291 17.294 34.9431 18.545 35.6631 19.517C36.4011 20.489 37.4001 20.975 38.6601 20.975C39.8301 20.975 41.4951 20.066 43.6551 18.248L44.4651 19.274L39.6861 23.054ZM37.4451 10.661C35.5011 10.661 34.4841 11.993 34.3941 14.657H40.7121C40.5501 13.685 40.3791 12.947 40.1991 12.443C40.0371 11.921 39.7401 11.498 39.3081 11.174C38.8941 10.832 38.2731 10.661 37.4451 10.661ZM62.0848 9.5L55.2538 23H53.2018L48.9898 12.713L46.4788 11.255V10.418L51.0958 8.15L52.1218 12.227L55.4158 20.273L59.2228 12.362L55.6318 9.743L56.1718 8.663H62.0848V9.5ZM71.7465 8.393C72.4845 8.393 73.3395 8.501 74.3115 8.717C75.3015 8.915 76.0125 9.14 76.4445 9.392V13.55H75.4185C74.7165 12.65 73.9065 11.948 72.9885 11.444C72.0885 10.922 71.1525 10.661 70.1805 10.661C69.3525 10.661 68.7225 11.03 68.2905 11.768C67.8765 12.506 67.6695 13.586 67.6695 15.008C67.6695 16.7 68.0385 18.122 68.7765 19.274C69.5145 20.408 70.5675 20.975 71.9355 20.975C72.9615 20.975 74.4195 20.237 76.3095 18.761L77.1195 19.787L72.9615 23.054C72.2415 23.198 71.3775 23.27 70.3695 23.27C69.1815 23.27 68.1105 22.964 67.1565 22.352C66.2205 21.722 65.4825 20.876 64.9425 19.814C64.4205 18.752 64.1595 17.582 64.1595 16.304C64.1595 14.918 64.5465 13.613 65.3205 12.389C66.1125 11.165 67.1025 10.193 68.2905 9.473C69.4785 8.753 70.6305 8.393 71.7465 8.393ZM88.8451 8.393C90.0331 8.393 91.0951 8.708 92.0311 9.338C92.9851 9.95 93.7231 10.787 94.2451 11.849C94.7851 12.911 95.0551 14.081 95.0551 15.359C95.0551 16.745 94.6321 18.05 93.7861 19.274C92.9401 20.48 91.8781 21.452 90.6001 22.19C89.3401 22.91 88.1161 23.27 86.9281 23.27C85.7401 23.27 84.6691 22.964 83.7151 22.352C82.7791 21.722 82.0411 20.876 81.5011 19.814C80.9791 18.752 80.7181 17.582 80.7181 16.304C80.7181 14.918 81.1411 13.622 81.9871 12.416C82.8331 11.192 83.8861 10.22 85.1461 9.5C86.4241 8.762 87.6571 8.393 88.8451 8.393ZM87.2791 10.661C85.2451 10.661 84.2281 12.11 84.2281 15.008C84.2281 16.718 84.5971 18.149 85.3351 19.301C86.0731 20.435 87.1261 21.002 88.4941 21.002C90.5281 21.002 91.5451 19.544 91.5451 16.628C91.5451 14.936 91.1761 13.523 90.4381 12.389C89.7001 11.237 88.6471 10.661 87.2791 10.661ZM115.14 23.027H110.01V13.928C110.01 12.938 109.857 12.245 109.551 11.849C109.245 11.453 108.696 11.255 107.904 11.255C107.31 11.255 106.716 11.363 106.122 11.579C105.546 11.795 104.862 12.209 104.07 12.821V21.002L106.5 21.947L105.96 23.027H98.4274V22.19L100.83 20.3V12.659L98.4274 11.255V10.418L103.044 8.15L103.935 11.66L107.769 8.609C108.147 8.465 108.642 8.393 109.254 8.393C110.478 8.393 111.45 8.771 112.17 9.527C112.89 10.265 113.25 11.273 113.25 12.551V20.975L115.68 21.947L115.14 23.027Z" fill="black"/>
<path d="M17.69 1.535H16.69V2.535H17.69V1.535ZM22.604 2.885L22.0692 3.72998L22.0754 3.73391L22.0817 3.73775L22.604 2.885ZM25.925 6.584L25.0265 7.02304L25.0306 7.03121L25.925 6.584ZM25.304 17.654L24.4812 17.0857L24.48 17.0875L25.304 17.654ZM20.849 21.785L21.3451 22.6532L21.348 22.6516L20.849 21.785ZM13.262 23.162L13.3678 22.1676L13.3473 22.1654L13.3268 22.1641L13.262 23.162ZM6.62 23.027H5.62V24.027H6.62V23.027ZM6.62 22.19L6.00144 21.4043L5.62 21.7045V22.19H6.62ZM9.158 20.192L9.77656 20.9777L10.158 20.6775V20.192H9.158ZM9.158 3.776H10.158V3.05084L9.46874 2.8255L9.158 3.776ZM6.35 2.858L5.45557 2.41078L4.93691 3.44811L6.03926 3.80849L6.35 2.858ZM6.89 1.778V0.778H6.27197L5.99557 1.33079L6.89 1.778ZM15.017 1.616L14.9583 0.617693L14.9505 0.618214L15.017 1.616ZM17.69 1.508H18.69V0.507998H17.69V1.508ZM20.066 20.273L20.6075 21.1138L20.6174 21.1072L20.066 20.273ZM22.55 17.384L21.653 16.942L21.6503 16.9474L22.55 17.384ZM22.604 8.231L21.6695 8.587L21.6709 8.59073L22.604 8.231ZM19.958 4.613L19.3483 5.40564L19.3541 5.41009L19.958 4.613ZM12.533 4.235L11.9638 3.41281L11.533 3.71104V4.235H12.533ZM12.533 20.624H11.533V21.2949L12.1538 21.5493L12.533 20.624ZM17.69 1.535V2.535C19.3746 2.535 20.8232 2.9414 22.0692 3.72998L22.604 2.885L23.1388 2.04002C21.5408 1.0286 19.7134 0.535 17.69 0.535V1.535ZM22.604 2.885L22.0817 3.73775C23.3522 4.51592 24.3322 5.60199 25.0265 7.02303L25.925 6.584L26.8235 6.14497C25.9698 4.39801 24.7358 3.01808 23.1263 2.03224L22.604 2.885ZM25.925 6.584L25.0306 7.03121C25.7447 8.45946 26.113 10.0942 26.113 11.957H27.113H28.113C28.113 9.82382 27.6893 7.87654 26.8194 6.13679L25.925 6.584ZM27.113 11.957H26.113C26.113 13.7987 25.576 15.5007 24.4812 17.0857L25.304 17.654L26.1268 18.2223C27.444 16.3153 28.113 14.2193 28.113 11.957H27.113ZM25.304 17.654L24.48 17.0875C23.3748 18.6949 22 19.9684 20.35 20.9184L20.849 21.785L21.348 22.6516C23.262 21.5496 24.8572 20.0691 26.128 18.2205L25.304 17.654ZM20.849 21.785L20.3529 20.9168C18.7021 21.8601 17.18 22.297 15.773 22.297V23.297V24.297C17.606 24.297 19.4679 23.7259 21.3451 22.6532L20.849 21.785ZM15.773 23.297V22.297C14.9813 22.297 14.1796 22.254 13.3678 22.1676L13.262 23.162L13.1562 24.1564C14.0364 24.25 14.9087 24.297 15.773 24.297V23.297ZM13.262 23.162L13.3268 22.1641C11.9338 22.0737 10.8375 22.027 10.049 22.027V23.027V24.027C10.7725 24.027 11.8182 24.0704 13.1972 24.1599L13.262 23.162ZM10.049 23.027V22.027H6.62V23.027V24.027H10.049V23.027ZM6.62 23.027H7.62V22.19H6.62H5.62V23.027H6.62ZM6.62 22.19L7.23856 22.9757L9.77656 20.9777L9.158 20.192L8.53944 19.4063L6.00144 21.4043L6.62 22.19ZM9.158 20.192H10.158V3.776H9.158H8.158V20.192H9.158ZM9.158 3.776L9.46874 2.8255L6.66074 1.9075L6.35 2.858L6.03926 3.80849L8.84726 4.7265L9.158 3.776ZM6.35 2.858L7.24443 3.30521L7.78443 2.22521L6.89 1.778L5.99557 1.33079L5.45557 2.41078L6.35 2.858ZM6.89 1.778V2.778H10.022V1.778V0.778H6.89V1.778ZM10.022 1.778V2.778C11.753 2.778 13.4402 2.72334 15.0835 2.61378L15.017 1.616L14.9505 0.618214C13.3538 0.724663 11.711 0.778 10.022 0.778V1.778ZM15.017 1.616L15.0757 2.61427C16.2976 2.5424 17.1635 2.508 17.69 2.508V1.508V0.507998C17.1005 0.507998 16.1844 0.545597 14.9583 0.617723L15.017 1.616ZM17.69 1.508H16.69V1.535H17.69H18.69V1.508H17.69ZM16.529 21.299V22.299C18.0118 22.299 19.3796 21.9045 20.6075 21.1137L20.066 20.273L19.5245 19.4323C18.6284 20.0095 17.6382 20.299 16.529 20.299V21.299ZM20.066 20.273L20.6174 21.1072C21.8394 20.2995 22.7829 19.1945 23.4497 17.8206L22.55 17.384L21.6503 16.9474C21.1291 18.0215 20.4166 18.8425 19.5146 19.4388L20.066 20.273ZM22.55 17.384L23.447 17.826C24.1336 16.4326 24.468 14.893 24.468 13.226H23.468H22.468C22.468 14.619 22.1904 15.8514 21.653 16.942L22.55 17.384ZM23.468 13.226H24.468C24.468 11.2848 24.1633 9.49557 23.5371 7.87127L22.604 8.231L21.6709 8.59073C22.1967 9.95442 22.468 11.4952 22.468 13.226H23.468ZM22.604 8.231L23.5385 7.875C22.9017 6.20346 21.912 4.83871 20.5619 3.81591L19.958 4.613L19.3541 5.41009C20.38 6.18728 21.1543 7.23453 21.6695 8.58699L22.604 8.231ZM19.958 4.613L20.5677 3.82037C19.1924 2.76248 17.5088 2.263 15.584 2.263V3.263V4.263C17.1512 4.263 18.3836 4.66352 19.3483 5.40562L19.958 4.613ZM15.584 3.263V2.263C14.2748 2.263 13.0605 2.65356 11.9638 3.41281L12.533 4.235L13.1022 5.05719C13.8775 4.52044 14.6972 4.263 15.584 4.263V3.263ZM12.533 4.235H11.533V20.624H12.533H13.533V4.235H12.533ZM12.533 20.624L12.1538 21.5493C13.4039 22.0616 14.8724 22.299 16.529 22.299V21.299V20.299C15.0536 20.299 13.8581 20.0863 12.9122 19.6987L12.533 20.624ZM39.6861 23.054L39.8823 24.0346L40.118 23.9874L40.3065 23.8383L39.6861 23.054ZM33.8811 22.352L33.3228 23.1816L33.3319 23.1877L33.3412 23.1937L33.8811 22.352ZM31.6671 19.814L30.7696 20.2552L30.7758 20.2672L31.6671 19.814ZM32.1531 12.416L32.9718 12.9903L32.9758 12.9846L32.1531 12.416ZM35.3121 9.5L35.8083 10.3683L35.8122 10.366L35.3121 9.5ZM42.9801 10.418L42.1583 10.9878L42.1635 10.9951L42.9801 10.418ZM44.4111 15.764V16.764H45.4111V15.764H44.4111ZM34.4211 15.764V14.764H33.3481L33.4236 15.8344L34.4211 15.764ZM35.6631 19.517L34.8595 20.1123L34.8667 20.1217L35.6631 19.517ZM43.6551 18.248L44.44 17.6284L43.8006 16.8185L43.0112 17.4829L43.6551 18.248ZM44.4651 19.274L45.0855 20.0583L45.8691 19.4385L45.25 18.6544L44.4651 19.274ZM34.3941 14.657L33.3947 14.6232L33.3598 15.657H34.3941V14.657ZM40.7121 14.657V15.657H41.8926L41.6985 14.4926L40.7121 14.657ZM40.1991 12.443L39.2441 12.7394L39.2503 12.7595L39.2574 12.7793L40.1991 12.443ZM39.3081 11.174L38.6713 11.945L38.6894 11.9599L38.7081 11.974L39.3081 11.174ZM39.6861 23.054L39.49 22.0734C38.8534 22.2007 38.0588 22.27 37.0941 22.27V23.27V24.27C38.1455 24.27 39.0788 24.1953 39.8823 24.0346L39.6861 23.054ZM37.0941 23.27V22.27C36.0879 22.27 35.206 22.0138 34.4211 21.5103L33.8811 22.352L33.3412 23.1937C34.4643 23.9142 35.7244 24.27 37.0941 24.27V23.27ZM33.8811 22.352L34.4395 21.5224C33.6527 20.9928 33.0258 20.2798 32.5585 19.3608L31.6671 19.814L30.7758 20.2672C31.3884 21.4722 32.2376 22.4512 33.3228 23.1816L33.8811 22.352ZM31.6671 19.814L32.5646 19.3729C32.1154 18.4589 31.8841 17.4415 31.8841 16.304H30.8841H29.8841C29.8841 17.7225 30.1749 19.0451 30.7697 20.2551L31.6671 19.814ZM30.8841 16.304H31.8841C31.8841 15.1368 32.236 14.0392 32.9718 12.9903L32.1531 12.416L31.3345 11.8417C30.3783 13.2048 29.8841 14.6992 29.8841 16.304H30.8841ZM32.1531 12.416L32.9758 12.9846C33.7389 11.8804 34.6815 11.0121 35.8083 10.3682L35.3121 9.5L34.816 8.63176C33.4228 9.42788 32.2593 10.5036 31.3305 11.8474L32.1531 12.416ZM35.3121 9.5L35.8122 10.366C36.9746 9.69472 38.0365 9.393 39.0111 9.393V8.393V7.393C37.6098 7.393 36.2056 7.82928 34.8121 8.63402L35.3121 9.5ZM39.0111 8.393V9.393C40.4092 9.393 41.4181 9.9201 42.1583 10.9878L42.9801 10.418L43.8019 9.84822C42.6702 8.21589 41.0331 7.393 39.0111 7.393V8.393ZM42.9801 10.418L42.1635 10.9951C42.9637 12.1275 43.4111 13.6876 43.4111 15.764H44.4111H45.4111C45.4111 13.4124 44.9046 11.4085 43.7968 9.84089L42.9801 10.418ZM44.4111 15.764V14.764H34.4211V15.764V16.764H44.4111V15.764ZM34.4211 15.764L33.4236 15.8344C33.5415 17.5038 33.9995 18.9512 34.8596 20.1122L35.6631 19.517L36.4667 18.9218C35.8867 18.1388 35.5168 17.0842 35.4187 15.6936L34.4211 15.764ZM35.6631 19.517L34.8667 20.1217C35.8008 21.3521 37.0993 21.975 38.6601 21.975V20.975V19.975C37.7009 19.975 37.0014 19.6259 36.4596 18.9123L35.6631 19.517ZM38.6601 20.975V21.975C39.4858 21.975 40.3677 21.6612 41.2656 21.171C42.1775 20.6731 43.1902 19.9464 44.2991 19.0131L43.6551 18.248L43.0112 17.4829C41.9601 18.3676 41.0603 19.0044 40.3072 19.4155C39.5401 19.8343 39.0044 19.975 38.6601 19.975V20.975ZM43.6551 18.248L42.8703 18.8676L43.6803 19.8936L44.4651 19.274L45.25 18.6544L44.44 17.6284L43.6551 18.248ZM44.4651 19.274L43.8448 18.4897L39.0658 22.2697L39.6861 23.054L40.3065 23.8383L45.0855 20.0583L44.4651 19.274ZM37.4451 10.661V9.661C36.2179 9.661 35.1591 10.0977 34.4296 11.0531C33.7403 11.9559 33.4429 13.1967 33.3947 14.6232L34.3941 14.657L35.3936 14.6908C35.4354 13.4533 35.6915 12.6961 36.0192 12.2669C36.3067 11.8903 36.7284 11.661 37.4451 11.661V10.661ZM34.3941 14.657V15.657H40.7121V14.657V13.657H34.3941V14.657ZM40.7121 14.657L41.6985 14.4926C41.5335 13.5021 41.351 12.6949 41.1409 12.1067L40.1991 12.443L39.2574 12.7793C39.4073 13.1991 39.5668 13.8679 39.7257 14.8214L40.7121 14.657ZM40.1991 12.443L41.1542 12.1466C40.9306 11.4262 40.5107 10.8259 39.9081 10.374L39.3081 11.174L38.7081 11.974C38.9695 12.1701 39.1437 12.4158 39.2441 12.7394L40.1991 12.443ZM39.3081 11.174L39.945 10.403C39.2772 9.85135 38.3858 9.661 37.4451 9.661V10.661V11.661C38.1605 11.661 38.5111 11.8127 38.6713 11.945L39.3081 11.174ZM62.0848 9.5L62.977 9.95149L63.0848 9.7386V9.5H62.0848ZM55.2537 23V24H55.8685L56.146 23.4515L55.2537 23ZM53.2018 23L52.2763 23.3789L52.5306 24H53.2018V23ZM48.9897 12.713L49.9152 12.3341L49.7862 12.0191L49.4919 11.8482L48.9897 12.713ZM46.4787 11.255H45.4787V11.8307L45.9766 12.1198L46.4787 11.255ZM46.4787 10.418L46.0378 9.52045L45.4787 9.79509V10.418H46.4787ZM51.0957 8.15L52.0655 7.90595L51.7639 6.70762L50.6548 7.25245L51.0957 8.15ZM52.1217 12.227L51.152 12.471L51.1693 12.54L51.1963 12.6059L52.1217 12.227ZM55.4158 20.273L54.4903 20.6519L55.342 22.7323L56.3168 20.7066L55.4158 20.273ZM59.2228 12.362L60.1238 12.7956L60.4851 12.0449L59.812 11.5541L59.2228 12.362ZM55.6318 9.743L54.7373 9.29578L54.359 10.0525L55.0425 10.5509L55.6318 9.743ZM56.1717 8.663V7.663H55.5537L55.2773 8.21579L56.1717 8.663ZM62.0848 8.663H63.0848V7.663H62.0848V8.663ZM62.0848 9.5L61.1925 9.04851L54.3615 22.5485L55.2537 23L56.146 23.4515L62.977 9.95149L62.0848 9.5ZM55.2537 23V22H53.2018V23V24H55.2537V23ZM53.2018 23L54.1272 22.6211L49.9152 12.3341L48.9897 12.713L48.0643 13.0919L52.2763 23.3789L53.2018 23ZM48.9897 12.713L49.4919 11.8482L46.9809 10.3902L46.4787 11.255L45.9766 12.1198L48.4876 13.5778L48.9897 12.713ZM46.4787 11.255H47.4787V10.418H46.4787H45.4787V11.255H46.4787ZM46.4787 10.418L46.9197 11.3156L51.5367 9.04755L51.0957 8.15L50.6548 7.25245L46.0378 9.52045L46.4787 10.418ZM51.0957 8.15L50.126 8.39405L51.152 12.471L52.1217 12.227L53.0915 11.983L52.0655 7.90595L51.0957 8.15ZM52.1217 12.227L51.1963 12.6059L54.4903 20.6519L55.4158 20.273L56.3412 19.8941L53.0472 11.8481L52.1217 12.227ZM55.4158 20.273L56.3168 20.7066L60.1238 12.7956L59.2228 12.362L58.3217 11.9284L54.5147 19.8394L55.4158 20.273ZM59.2228 12.362L59.812 11.5541L56.221 8.93505L55.6318 9.743L55.0425 10.5509L58.6335 13.1699L59.2228 12.362ZM55.6318 9.743L56.5262 10.1902L57.0662 9.11021L56.1717 8.663L55.2773 8.21579L54.7373 9.29578L55.6318 9.743ZM56.1717 8.663V9.663H62.0848V8.663V7.663H56.1717V8.663ZM62.0848 8.663H61.0848V9.5H62.0848H63.0848V8.663H62.0848ZM74.3115 8.717L74.0946 9.69319L74.105 9.69549L74.1154 9.69758L74.3115 8.717ZM76.4445 9.392H77.4445V8.81763L76.9484 8.52822L76.4445 9.392ZM76.4445 13.55V14.55H77.4445V13.55H76.4445ZM75.4185 13.55L74.63 14.165L74.9303 14.55H75.4185V13.55ZM72.9885 11.444L72.4868 12.309L72.497 12.3149L72.5073 12.3206L72.9885 11.444ZM68.2905 11.768L67.4275 11.2628L67.4229 11.2707L67.4184 11.2787L68.2905 11.768ZM68.7765 19.274L67.9345 19.8134L67.9384 19.8195L68.7765 19.274ZM76.3095 18.761L77.0944 18.1414L76.478 17.3606L75.694 17.9729L76.3095 18.761ZM77.1195 19.787L77.7374 20.5733L78.5255 19.9541L77.9044 19.1674L77.1195 19.787ZM72.9615 23.054L73.1576 24.0346L73.3917 23.9878L73.5794 23.8403L72.9615 23.054ZM67.1565 22.352L66.5982 23.1816L66.6073 23.1877L66.6166 23.1937L67.1565 22.352ZM64.9425 19.814L64.045 20.2552L64.0511 20.2672L64.9425 19.814ZM65.3205 12.389L64.4809 11.8457L64.4753 11.8545L65.3205 12.389ZM68.2905 9.473L67.7722 8.6178V8.6178L68.2905 9.473ZM71.7465 8.393V9.393C72.3913 9.393 73.1709 9.48792 74.0946 9.69319L74.3115 8.717L74.5285 7.74081C73.5082 7.51408 72.5778 7.393 71.7465 7.393V8.393ZM74.3115 8.717L74.1154 9.69758C75.0842 9.89133 75.6587 10.0913 75.9407 10.2558L76.4445 9.392L76.9484 8.52822C76.3664 8.18872 75.5189 7.93867 74.5076 7.73642L74.3115 8.717ZM76.4445 9.392H75.4445V13.55H76.4445H77.4445V9.392H76.4445ZM76.4445 13.55V12.55H75.4185V13.55V14.55H76.4445V13.55ZM75.4185 13.55L76.207 12.935C75.429 11.9375 74.5173 11.1425 73.4698 10.5674L72.9885 11.444L72.5073 12.3206C73.2958 12.7535 74.004 13.3625 74.63 14.165L75.4185 13.55ZM72.9885 11.444L73.4902 10.579C72.4489 9.97501 71.3412 9.661 70.1805 9.661V10.661V11.661C70.9639 11.661 71.7281 11.869 72.4868 12.309L72.9885 11.444ZM70.1805 10.661V9.661C68.9833 9.661 68.0317 10.2307 67.4275 11.2628L68.2905 11.768L69.1535 12.2732C69.4134 11.8293 69.7218 11.661 70.1805 11.661V10.661ZM68.2905 11.768L67.4184 11.2787C66.8816 12.2357 66.6695 13.5174 66.6695 15.008H67.6695H68.6695C68.6695 13.6545 68.8715 12.7763 69.1627 12.2573L68.2905 11.768ZM67.6695 15.008H66.6695C66.6695 16.8459 67.0714 18.4661 67.9345 19.8134L68.7765 19.274L69.6186 18.7346C69.0057 17.7779 68.6695 16.5541 68.6695 15.008H67.6695ZM68.7765 19.274L67.9384 19.8195C68.8634 21.2408 70.2338 21.975 71.9355 21.975V20.975V19.975C70.9013 19.975 70.1657 19.5752 69.6147 18.7285L68.7765 19.274ZM71.9355 20.975V21.975C72.6716 21.975 73.4554 21.716 74.2501 21.3137C75.057 20.9053 75.9503 20.3104 76.925 19.5491L76.3095 18.761L75.694 17.9729C74.7788 18.6876 73.9981 19.1997 73.3469 19.5293C72.6837 19.865 72.2255 19.975 71.9355 19.975V20.975ZM76.3095 18.761L75.5247 19.3806L76.3346 20.4066L77.1195 19.787L77.9044 19.1674L77.0944 18.1414L76.3095 18.761ZM77.1195 19.787L76.5017 19.0007L72.3437 22.2677L72.9615 23.054L73.5794 23.8403L77.7374 20.5733L77.1195 19.787ZM72.9615 23.054L72.7654 22.0734C72.1288 22.2007 71.3342 22.27 70.3695 22.27V23.27V24.27C71.4209 24.27 72.3542 24.1953 73.1576 24.0346L72.9615 23.054ZM70.3695 23.27V22.27C69.3633 22.27 68.4814 22.0138 67.6965 21.5103L67.1565 22.352L66.6166 23.1937C67.7397 23.9142 68.9998 24.27 70.3695 24.27V23.27ZM67.1565 22.352L67.7149 21.5224C66.9281 20.9928 66.3012 20.2798 65.8339 19.3608L64.9425 19.814L64.0511 20.2672C64.6638 21.4722 65.513 22.4512 66.5982 23.1816L67.1565 22.352ZM64.9425 19.814L65.84 19.3729C65.3907 18.4589 65.1595 17.4415 65.1595 16.304H64.1595H63.1595C63.1595 17.7225 63.4503 19.0451 64.0451 20.2551L64.9425 19.814ZM64.1595 16.304H65.1595C65.1595 15.1159 65.4881 13.9951 66.1657 12.9235L65.3205 12.389L64.4753 11.8545C63.605 13.2309 63.1595 14.7201 63.1595 16.304H64.1595ZM65.3205 12.389L66.1601 12.9323C66.8741 11.8287 67.7565 10.966 68.8088 10.3282L68.2905 9.473L67.7722 8.6178C66.4485 9.42005 65.3509 10.5013 64.481 11.8457L65.3205 12.389ZM68.2905 9.473L68.8088 10.3282C69.8786 9.67988 70.8531 9.393 71.7465 9.393V8.393V7.393C70.4079 7.393 69.0785 7.82612 67.7722 8.6178L68.2905 9.473ZM92.0311 9.338L91.4727 10.1676L91.4819 10.1737L91.4912 10.1797L92.0311 9.338ZM94.2451 11.849L93.3476 12.2902L93.3537 12.3022L94.2451 11.849ZM93.7861 19.274L94.6048 19.8483L94.6087 19.8426L93.7861 19.274ZM90.6001 22.19L91.0963 23.0583L91.1002 23.056L90.6001 22.19ZM83.7151 22.352L83.1567 23.1816L83.1659 23.1877L83.1752 23.1937L83.7151 22.352ZM81.5011 19.814L80.6036 20.2552L80.6097 20.2672L81.5011 19.814ZM81.9871 12.416L82.8058 12.9903L82.8098 12.9846L81.9871 12.416ZM85.1461 9.5L85.6423 10.3683L85.6462 10.366L85.1461 9.5ZM85.3351 19.301L84.4931 19.8404L84.497 19.8465L85.3351 19.301ZM90.4381 12.389L89.5961 12.9284L89.6 12.9345L90.4381 12.389ZM88.8451 8.393V9.393C89.8453 9.393 90.7108 9.65471 91.4727 10.1676L92.0311 9.338L92.5895 8.50841C91.4795 7.76129 90.2209 7.393 88.8451 7.393V8.393ZM92.0311 9.338L91.4912 10.1797C92.2848 10.6888 92.9024 11.3842 93.3477 12.2901L94.2451 11.849L95.1426 11.4079C94.5439 10.1898 93.6855 9.21119 92.5711 8.49631L92.0311 9.338ZM94.2451 11.849L93.3537 12.3022C93.8172 13.2137 94.0551 14.2268 94.0551 15.359H95.0551H96.0551C96.0551 13.9352 95.753 12.6083 95.1365 11.3958L94.2451 11.849ZM95.0551 15.359H94.0551C94.0551 16.5267 93.7029 17.6356 92.9635 18.7054L93.7861 19.274L94.6087 19.8426C95.5613 18.4644 96.0551 16.9633 96.0551 15.359H95.0551ZM93.7861 19.274L92.9675 18.6997C92.2053 19.7862 91.2521 20.6587 90.1001 21.324L90.6001 22.19L91.1002 23.056C92.5041 22.2453 93.6749 21.1738 94.6048 19.8483L93.7861 19.274ZM90.6001 22.19L90.104 21.3218C88.9618 21.9744 87.9074 22.27 86.9281 22.27V23.27V24.27C88.3249 24.27 89.7185 23.8456 91.0963 23.0582L90.6001 22.19ZM86.9281 23.27V22.27C85.9219 22.27 85.04 22.0138 84.2551 21.5103L83.7151 22.352L83.1752 23.1937C84.2983 23.9142 85.5584 24.27 86.9281 24.27V23.27ZM83.7151 22.352L84.2735 21.5224C83.4867 20.9928 82.8598 20.2798 82.3925 19.3608L81.5011 19.814L80.6097 20.2672C81.2224 21.4722 82.0716 22.4512 83.1567 23.1816L83.7151 22.352ZM81.5011 19.814L82.3986 19.3729C81.9493 18.4589 81.7181 17.4415 81.7181 16.304H80.7181H79.7181C79.7181 17.7225 80.0089 19.0451 80.6037 20.2551L81.5011 19.814ZM80.7181 16.304H81.7181C81.7181 15.1368 82.07 14.0392 82.8058 12.9903L81.9871 12.416L81.1685 11.8417C80.2123 13.2048 79.7181 14.6992 79.7181 16.304H80.7181ZM81.9871 12.416L82.8098 12.9846C83.5729 11.8804 84.5155 11.0121 85.6423 10.3682L85.1461 9.5L84.65 8.63176C83.2568 9.42788 82.0933 10.5036 81.1645 11.8474L81.9871 12.416ZM85.1461 9.5L85.6462 10.366C86.8086 9.69472 87.8705 9.393 88.8451 9.393V8.393V7.393C87.4438 7.393 86.0396 7.82928 84.646 8.63402L85.1461 9.5ZM87.2791 10.661V9.661C85.9922 9.661 84.8981 10.1393 84.1724 11.1733C83.492 12.1426 83.2281 13.4726 83.2281 15.008H84.2281H85.2281C85.2281 13.6454 85.4728 12.8019 85.8094 12.3222C86.1007 11.9072 86.532 11.661 87.2791 11.661V10.661ZM84.2281 15.008H83.2281C83.2281 16.8615 83.6289 18.4915 84.4931 19.8404L85.3351 19.301L86.1772 18.7616C85.5653 17.8065 85.2281 16.5745 85.2281 15.008H84.2281ZM85.3351 19.301L84.497 19.8465C85.422 21.2678 86.7924 22.002 88.4941 22.002V21.002V20.002C87.4599 20.002 86.7243 19.6022 86.1733 18.7555L85.3351 19.301ZM88.4941 21.002V22.002C89.7835 22.002 90.8779 21.5195 91.6026 20.4806C92.2815 19.5072 92.5451 18.1715 92.5451 16.628H91.5451H90.5451C90.5451 18.0005 90.3002 18.8518 89.9622 19.3364C89.6699 19.7555 89.2387 20.002 88.4941 20.002V21.002ZM91.5451 16.628H92.5451C92.5451 14.7908 92.1435 13.1762 91.2763 11.8435L90.4381 12.389L89.6 12.9345C90.2087 13.8698 90.5451 15.0812 90.5451 16.628H91.5451ZM90.4381 12.389L91.2802 11.8496C90.3583 10.4106 88.988 9.661 87.2791 9.661V10.661V11.661C88.3063 11.661 89.0419 12.0634 89.5961 12.9284L90.4381 12.389ZM115.14 23.027V24.027H115.758L116.035 23.4742L115.14 23.027ZM110.01 23.027H109.01V24.027H110.01V23.027ZM109.551 11.849L108.76 12.4604V12.4604L109.551 11.849ZM106.122 11.579L105.781 10.6392L105.771 10.6427L106.122 11.579ZM104.07 12.821L103.459 12.0297L103.07 12.33V12.821H104.07ZM104.07 21.002H103.07V21.6861L103.708 21.934L104.07 21.002ZM106.5 21.947L107.395 22.3942L107.886 21.4127L106.863 21.015L106.5 21.947ZM105.96 23.027V24.027H106.578L106.855 23.4742L105.96 23.027ZM98.4274 23.027H97.4274V24.027H98.4274V23.027ZM98.4274 22.19L97.8092 21.404L97.4274 21.7043V22.19H98.4274ZM100.83 20.3L101.449 21.086L101.83 20.7857V20.3H100.83ZM100.83 12.659H101.83V12.0851L101.335 11.7956L100.83 12.659ZM98.4274 11.255H97.4274V11.8289L97.9229 12.1184L98.4274 11.255ZM98.4274 10.418L97.9865 9.52045L97.4274 9.79509V10.418H98.4274ZM103.044 8.15L104.014 7.90396L103.71 6.70877L102.603 7.25245L103.044 8.15ZM103.935 11.66L102.966 11.906L103.347 13.4063L104.558 12.4425L103.935 11.66ZM107.769 8.609L107.413 7.67451L107.268 7.7298L107.147 7.82652L107.769 8.609ZM112.17 9.527L111.446 10.2167L111.455 10.2253L112.17 9.527ZM113.25 20.975H112.25V21.652L112.879 21.9035L113.25 20.975ZM115.68 21.947L116.575 22.3942L117.061 21.4221L116.052 21.0185L115.68 21.947ZM115.14 23.027V22.027H110.01V23.027V24.027H115.14V23.027ZM110.01 23.027H111.01V13.928H110.01H109.01V23.027H110.01ZM110.01 13.928H111.01C111.01 12.8994 110.864 11.9125 110.343 11.2376L109.551 11.849L108.76 12.4604C108.851 12.5775 109.01 12.9766 109.01 13.928H110.01ZM109.551 11.849L110.343 11.2376C109.759 10.4816 108.824 10.255 107.904 10.255V11.255V12.255C108.569 12.255 108.732 12.4244 108.76 12.4604L109.551 11.849ZM107.904 11.255V10.255C107.187 10.255 106.477 10.3859 105.781 10.6392L106.122 11.579L106.464 12.5188C106.956 12.3401 107.434 12.255 107.904 12.255V11.255ZM106.122 11.579L105.771 10.6427C105.062 10.9087 104.287 11.3898 103.459 12.0297L104.07 12.821L104.682 13.6123C105.438 13.0282 106.031 12.6813 106.474 12.5153L106.122 11.579ZM104.07 12.821H103.07V21.002H104.07H105.07V12.821H104.07ZM104.07 21.002L103.708 21.934L106.138 22.879L106.5 21.947L106.863 21.015L104.433 20.07L104.07 21.002ZM106.5 21.947L105.606 21.4998L105.066 22.5798L105.96 23.027L106.855 23.4742L107.395 22.3942L106.5 21.947ZM105.96 23.027V22.027H98.4274V23.027V24.027H105.96V23.027ZM98.4274 23.027H99.4274V22.19H98.4274H97.4274V23.027H98.4274ZM98.4274 22.19L99.0456 22.976L101.449 21.086L100.83 20.3L100.212 19.514L97.8092 21.404L98.4274 22.19ZM100.83 20.3H101.83V12.659H100.83H99.8304V20.3H100.83ZM100.83 12.659L101.335 11.7956L98.9319 10.3916L98.4274 11.255L97.9229 12.1184L100.326 13.5224L100.83 12.659ZM98.4274 11.255H99.4274V10.418H98.4274H97.4274V11.255H98.4274ZM98.4274 10.418L98.8683 11.3156L103.485 9.04755L103.044 8.15L102.603 7.25245L97.9865 9.52045L98.4274 10.418ZM103.044 8.15L102.075 8.39604L102.966 11.906L103.935 11.66L104.905 11.414L104.014 7.90396L103.044 8.15ZM103.935 11.66L104.558 12.4425L108.392 9.39148L107.769 8.609L107.147 7.82652L103.313 10.8775L103.935 11.66ZM107.769 8.609L108.125 9.54349C108.347 9.45907 108.708 9.393 109.254 9.393V8.393V7.393C108.577 7.393 107.948 7.47093 107.413 7.67451L107.769 8.609ZM109.254 8.393V9.393C110.256 9.393 110.948 9.69313 111.446 10.2167L112.17 9.527L112.895 8.83735C111.953 7.84887 110.701 7.393 109.254 7.393V8.393ZM112.17 9.527L111.455 10.2253C111.951 10.7341 112.25 11.468 112.25 12.551H113.25H114.25C114.25 11.078 113.83 9.79587 112.886 8.82868L112.17 9.527ZM113.25 12.551H112.25V20.975H113.25H114.25V12.551H113.25ZM113.25 20.975L112.879 21.9035L115.309 22.8755L115.68 21.947L116.052 21.0185L113.622 20.0465L113.25 20.975ZM115.68 21.947L114.786 21.4998L114.246 22.5798L115.14 23.027L116.035 23.4742L116.575 22.3942L115.68 21.947Z" fill="black" mask="url(#path-1-outside-1_5_77)"/>
</g>
<defs>
<filter id="filter0_d_5_77" x="0.937012" y="0.507996" width="120.124" height="31.789" filterUnits="userSpaceOnUse" color-interpolation-filters="sRGB">
<feFlood flood-opacity="0" result="BackgroundImageFix"/>
<feColorMatrix in="SourceAlpha" type="matrix" values="0 0 0 0 0 0 0 0 0 0 0 0 0 0 0 0 0 0 127 0" result="hardAlpha"/>
<feOffset dy="4"/>
<feGaussianBlur stdDeviation="2"/>
<feComposite in2="hardAlpha" operator="out"/>
<feColorMatrix type="matrix" values="0 0 0 0 0 0 0 0 0 0 0 0 0 0 0 0 0 0 0.25 0"/>
<feBlend mode="normal" in2="BackgroundImageFix" result="effect1_dropShadow_5_77"/>
<feBlend mode="normal" in="SourceGraphic" in2="effect1_dropShadow_5_77" result="shape"/>
</filter>
</defs>
</svg>
