<svg width="427" height="126" viewBox="0 0 427 126" fill="none" xmlns="http://www.w3.org/2000/svg">
<g filter="url(#filter0_d_5_68)">
<mask id="path-1-outside-1_5_68" maskUnits="userSpaceOnUse" x="4" y="63.9142" width="414" height="54" fill="black">
<rect fill="white" x="4" y="63.9142" width="414" height="54"/>
<path d="M31.67 66.4192C35.8587 66.4192 39.5593 67.4358 42.772 69.4692C46.0253 71.4618 48.5263 74.2475 50.275 77.8262C52.0643 81.4048 52.959 85.4512 52.959 89.9652C52.959 94.6012 51.5967 98.8915 48.872 102.836C46.188 106.74 42.833 109.851 38.807 112.169C34.8217 114.447 30.999 115.585 27.339 115.585C25.4683 115.585 23.5773 115.484 21.666 115.28C18.5347 115.077 16.115 114.975 14.407 114.975H6.66V113.084L12.394 108.57V71.4822L6.05 69.4082L7.27 66.9682H14.346C18.2093 66.9682 21.971 66.8462 25.631 66.6022C28.3963 66.4395 30.4093 66.3582 31.67 66.3582V66.4192ZM29.047 111.071C31.975 111.071 34.6387 110.299 37.038 108.753C39.4373 107.167 41.308 104.992 42.65 102.226C44.0327 99.4202 44.724 96.2889 44.724 92.8322C44.724 88.6842 44.0733 84.9225 42.772 81.5472C41.4707 78.1312 39.478 75.4065 36.794 73.3732C34.1507 71.3398 30.8567 70.3232 26.912 70.3232C24.4313 70.3232 22.1337 71.0552 20.019 72.5192V109.546C22.4997 110.563 25.509 111.071 29.047 111.071ZM81.365 115.036C79.7383 115.362 77.7863 115.524 75.509 115.524C72.825 115.524 70.4053 114.833 68.25 113.45C66.1353 112.027 64.468 110.116 63.248 107.716C62.0687 105.317 61.479 102.674 61.479 99.7862C61.479 96.6549 62.4347 93.7269 64.346 91.0022C66.2573 88.2369 68.6363 86.0409 71.483 84.4142C74.3703 82.7469 77.156 81.9132 79.84 81.9132C83.7033 81.9132 86.6923 83.4382 88.807 86.4882C90.9623 89.5382 92.04 93.5642 92.04 98.5662H69.47C69.714 102.023 70.6493 104.849 72.276 107.045C73.9433 109.241 76.2003 110.339 79.047 110.339C81.6903 110.339 85.452 108.286 90.332 104.178L92.162 106.496L81.365 115.036ZM76.302 87.0372C71.91 87.0372 69.6123 90.0465 69.409 96.0652H83.683C83.317 93.8692 82.9307 92.2019 82.524 91.0632C82.158 89.8838 81.487 88.9282 80.511 88.1962C79.5757 87.4235 78.1727 87.0372 76.302 87.0372ZM131.969 84.4142L116.536 114.914H111.9L102.384 91.6732L96.7113 88.3792V86.4882L107.142 81.3642L109.46 90.5752L116.902 108.753L125.503 90.8802L117.39 84.9632L118.61 82.5232H131.969V84.4142ZM164.733 65.7482C166.889 65.7482 169.369 66.0532 172.175 66.6632C175.022 67.2732 177.096 67.9238 178.397 68.6152V80.4492H176.079C172.338 74.0645 167.377 70.8722 161.195 70.8722C158.511 70.8722 156.051 71.6652 153.814 73.2512C151.618 74.7965 149.89 76.9722 148.629 79.7782C147.369 82.5435 146.738 85.6545 146.738 89.1112C146.738 93.0965 147.348 96.7362 148.568 100.03C149.829 103.324 151.72 105.968 154.241 107.96C156.803 109.953 159.955 110.949 163.696 110.949C167.153 110.949 172.114 108.347 178.58 103.141L180.41 106.069L169.186 114.792C167.682 115.321 166.218 115.667 164.794 115.829C163.412 116.033 161.907 116.134 160.28 116.134C156.01 116.134 152.228 115.097 148.934 113.023C145.64 110.949 143.078 108.103 141.248 104.483C139.418 100.823 138.503 96.6752 138.503 92.0392C138.503 87.2812 139.886 82.8892 142.651 78.8632C145.417 74.7965 148.853 71.6042 152.96 69.2862C157.068 66.9275 160.992 65.7482 164.733 65.7482ZM206.903 81.9132C209.587 81.9132 211.987 82.6249 214.101 84.0482C216.257 85.4308 217.924 87.3218 219.103 89.7212C220.323 92.1205 220.933 94.7639 220.933 97.6512C220.933 100.783 219.978 103.731 218.066 106.496C216.155 109.221 213.756 111.417 210.868 113.084C208.022 114.711 205.256 115.524 202.572 115.524C199.888 115.524 197.469 114.833 195.313 113.45C193.199 112.027 191.531 110.116 190.311 107.716C189.132 105.317 188.542 102.674 188.542 99.7862C188.542 96.6549 189.498 93.7269 191.409 91.0022C193.321 88.2369 195.7 86.0409 198.546 84.4142C201.434 82.7469 204.219 81.9132 206.903 81.9132ZM203.365 87.0372C198.77 87.0372 196.472 90.3109 196.472 96.8582C196.472 100.722 197.306 103.955 198.973 106.557C200.641 109.119 203.02 110.4 206.11 110.4C210.706 110.4 213.003 107.106 213.003 100.518C213.003 96.6955 212.17 93.5032 210.502 90.9412C208.835 88.3385 206.456 87.0372 203.365 87.0372ZM266.311 114.975H254.721V94.4182C254.721 92.1815 254.376 90.6158 253.684 89.7212C252.993 88.8265 251.753 88.3792 249.963 88.3792C248.621 88.3792 247.279 88.6232 245.937 89.1112C244.636 89.5992 243.091 90.5345 241.301 91.9172V110.4L246.791 112.535L245.571 114.975H228.552V113.084L233.981 108.814V91.5512L228.552 88.3792V86.4882L238.983 81.3642L240.996 89.2942L249.658 82.4012C250.512 82.0758 251.631 81.9132 253.013 81.9132C255.779 81.9132 257.975 82.7672 259.601 84.4752C261.228 86.1425 262.041 88.4198 262.041 91.3072V110.339L267.531 112.535L266.311 114.975ZM310.155 114.975H298.565V94.4182C298.565 92.1815 298.219 90.6158 297.528 89.7212C296.837 88.8265 295.596 88.3792 293.807 88.3792C292.465 88.3792 291.123 88.6232 289.781 89.1112C288.48 89.5992 286.934 90.5345 285.145 91.9172V110.4L290.635 112.535L289.415 114.975H272.396V113.084L277.825 108.814V91.5512L272.396 88.3792V86.4882L282.827 81.3642L284.84 89.2942L293.502 82.4012C294.356 82.0758 295.474 81.9132 296.857 81.9132C299.622 81.9132 301.818 82.7672 303.445 84.4752C305.072 86.1425 305.885 88.4198 305.885 91.3072V110.339L311.375 112.535L310.155 114.975ZM337.041 115.036C335.414 115.362 333.462 115.524 331.185 115.524C328.501 115.524 326.081 114.833 323.926 113.45C321.811 112.027 320.144 110.116 318.924 107.716C317.744 105.317 317.155 102.674 317.155 99.7862C317.155 96.6549 318.11 93.7269 320.022 91.0022C321.933 88.2369 324.312 86.0409 327.159 84.4142C330.046 82.7469 332.832 81.9132 335.516 81.9132C339.379 81.9132 342.368 83.4382 344.483 86.4882C346.638 89.5382 347.716 93.5642 347.716 98.5662H325.146C325.39 102.023 326.325 104.849 327.952 107.045C329.619 109.241 331.876 110.339 334.723 110.339C337.366 110.339 341.128 108.286 346.008 104.178L347.838 106.496L337.041 115.036ZM331.978 87.0372C327.586 87.0372 325.288 90.0465 325.085 96.0652H339.359C338.993 93.8692 338.606 92.2019 338.2 91.0632C337.834 89.8838 337.163 88.9282 336.187 88.1962C335.251 87.4235 333.848 87.0372 331.978 87.0372ZM373.493 81.9132C375.16 81.9132 377.092 82.1572 379.288 82.6452C381.525 83.0925 383.131 83.6009 384.107 84.1702V93.5642H381.789C380.203 91.5309 378.373 89.9449 376.299 88.8062C374.266 87.6268 372.151 87.0372 369.955 87.0372C368.084 87.0372 366.661 87.8709 365.685 89.5382C364.75 91.2055 364.282 93.6455 364.282 96.8582C364.282 100.681 365.116 103.894 366.783 106.496C368.45 109.058 370.829 110.339 373.92 110.339C376.238 110.339 379.532 108.672 383.802 105.337L385.632 107.655L376.238 115.036C374.611 115.362 372.659 115.524 370.382 115.524C367.698 115.524 365.278 114.833 363.123 113.45C361.008 112.027 359.341 110.116 358.121 107.716C356.942 105.317 356.352 102.674 356.352 99.7862C356.352 96.6549 357.226 93.7065 358.975 90.9412C360.764 88.1759 363.001 85.9798 365.685 84.3532C368.369 82.7265 370.972 81.9132 373.493 81.9132ZM410.232 115.036C409.297 115.362 408.158 115.524 406.816 115.524C403.441 115.524 400.96 114.65 399.374 112.901C397.829 111.112 397.056 108.367 397.056 104.666V86.8542H390.468V84.3532L402.058 70.8722H404.376V84.3532H415.356V86.8542H404.376V105.398C404.376 108.692 405.962 110.339 409.134 110.339C409.988 110.339 410.802 110.156 411.574 109.79C412.388 109.424 413.384 108.774 414.563 107.838L416.393 110.156L410.232 115.036Z"/>
</mask>
<path d="M31.67 66.4192C35.8587 66.4192 39.5593 67.4358 42.772 69.4692C46.0253 71.4618 48.5263 74.2475 50.275 77.8262C52.0643 81.4048 52.959 85.4512 52.959 89.9652C52.959 94.6012 51.5967 98.8915 48.872 102.836C46.188 106.74 42.833 109.851 38.807 112.169C34.8217 114.447 30.999 115.585 27.339 115.585C25.4683 115.585 23.5773 115.484 21.666 115.28C18.5347 115.077 16.115 114.975 14.407 114.975H6.66V113.084L12.394 108.57V71.4822L6.05 69.4082L7.27 66.9682H14.346C18.2093 66.9682 21.971 66.8462 25.631 66.6022C28.3963 66.4395 30.4093 66.3582 31.67 66.3582V66.4192ZM29.047 111.071C31.975 111.071 34.6387 110.299 37.038 108.753C39.4373 107.167 41.308 104.992 42.65 102.226C44.0327 99.4202 44.724 96.2889 44.724 92.8322C44.724 88.6842 44.0733 84.9225 42.772 81.5472C41.4707 78.1312 39.478 75.4065 36.794 73.3732C34.1507 71.3398 30.8567 70.3232 26.912 70.3232C24.4313 70.3232 22.1337 71.0552 20.019 72.5192V109.546C22.4997 110.563 25.509 111.071 29.047 111.071ZM81.365 115.036C79.7383 115.362 77.7863 115.524 75.509 115.524C72.825 115.524 70.4053 114.833 68.25 113.45C66.1353 112.027 64.468 110.116 63.248 107.716C62.0687 105.317 61.479 102.674 61.479 99.7862C61.479 96.6549 62.4347 93.7269 64.346 91.0022C66.2573 88.2369 68.6363 86.0409 71.483 84.4142C74.3703 82.7469 77.156 81.9132 79.84 81.9132C83.7033 81.9132 86.6923 83.4382 88.807 86.4882C90.9623 89.5382 92.04 93.5642 92.04 98.5662H69.47C69.714 102.023 70.6493 104.849 72.276 107.045C73.9433 109.241 76.2003 110.339 79.047 110.339C81.6903 110.339 85.452 108.286 90.332 104.178L92.162 106.496L81.365 115.036ZM76.302 87.0372C71.91 87.0372 69.6123 90.0465 69.409 96.0652H83.683C83.317 93.8692 82.9307 92.2019 82.524 91.0632C82.158 89.8838 81.487 88.9282 80.511 88.1962C79.5757 87.4235 78.1727 87.0372 76.302 87.0372ZM131.969 84.4142L116.536 114.914H111.9L102.384 91.6732L96.7113 88.3792V86.4882L107.142 81.3642L109.46 90.5752L116.902 108.753L125.503 90.8802L117.39 84.9632L118.61 82.5232H131.969V84.4142ZM164.733 65.7482C166.889 65.7482 169.369 66.0532 172.175 66.6632C175.022 67.2732 177.096 67.9238 178.397 68.6152V80.4492H176.079C172.338 74.0645 167.377 70.8722 161.195 70.8722C158.511 70.8722 156.051 71.6652 153.814 73.2512C151.618 74.7965 149.89 76.9722 148.629 79.7782C147.369 82.5435 146.738 85.6545 146.738 89.1112C146.738 93.0965 147.348 96.7362 148.568 100.03C149.829 103.324 151.72 105.968 154.241 107.96C156.803 109.953 159.955 110.949 163.696 110.949C167.153 110.949 172.114 108.347 178.58 103.141L180.41 106.069L169.186 114.792C167.682 115.321 166.218 115.667 164.794 115.829C163.412 116.033 161.907 116.134 160.28 116.134C156.01 116.134 152.228 115.097 148.934 113.023C145.64 110.949 143.078 108.103 141.248 104.483C139.418 100.823 138.503 96.6752 138.503 92.0392C138.503 87.2812 139.886 82.8892 142.651 78.8632C145.417 74.7965 148.853 71.6042 152.96 69.2862C157.068 66.9275 160.992 65.7482 164.733 65.7482ZM206.903 81.9132C209.587 81.9132 211.987 82.6249 214.101 84.0482C216.257 85.4308 217.924 87.3218 219.103 89.7212C220.323 92.1205 220.933 94.7639 220.933 97.6512C220.933 100.783 219.978 103.731 218.066 106.496C216.155 109.221 213.756 111.417 210.868 113.084C208.022 114.711 205.256 115.524 202.572 115.524C199.888 115.524 197.469 114.833 195.313 113.45C193.199 112.027 191.531 110.116 190.311 107.716C189.132 105.317 188.542 102.674 188.542 99.7862C188.542 96.6549 189.498 93.7269 191.409 91.0022C193.321 88.2369 195.7 86.0409 198.546 84.4142C201.434 82.7469 204.219 81.9132 206.903 81.9132ZM203.365 87.0372C198.77 87.0372 196.472 90.3109 196.472 96.8582C196.472 100.722 197.306 103.955 198.973 106.557C200.641 109.119 203.02 110.4 206.11 110.4C210.706 110.4 213.003 107.106 213.003 100.518C213.003 96.6955 212.17 93.5032 210.502 90.9412C208.835 88.3385 206.456 87.0372 203.365 87.0372ZM266.311 114.975H254.721V94.4182C254.721 92.1815 254.376 90.6158 253.684 89.7212C252.993 88.8265 251.753 88.3792 249.963 88.3792C248.621 88.3792 247.279 88.6232 245.937 89.1112C244.636 89.5992 243.091 90.5345 241.301 91.9172V110.4L246.791 112.535L245.571 114.975H228.552V113.084L233.981 108.814V91.5512L228.552 88.3792V86.4882L238.983 81.3642L240.996 89.2942L249.658 82.4012C250.512 82.0758 251.631 81.9132 253.013 81.9132C255.779 81.9132 257.975 82.7672 259.601 84.4752C261.228 86.1425 262.041 88.4198 262.041 91.3072V110.339L267.531 112.535L266.311 114.975ZM310.155 114.975H298.565V94.4182C298.565 92.1815 298.219 90.6158 297.528 89.7212C296.837 88.8265 295.596 88.3792 293.807 88.3792C292.465 88.3792 291.123 88.6232 289.781 89.1112C288.48 89.5992 286.934 90.5345 285.145 91.9172V110.4L290.635 112.535L289.415 114.975H272.396V113.084L277.825 108.814V91.5512L272.396 88.3792V86.4882L282.827 81.3642L284.84 89.2942L293.502 82.4012C294.356 82.0758 295.474 81.9132 296.857 81.9132C299.622 81.9132 301.818 82.7672 303.445 84.4752C305.072 86.1425 305.885 88.4198 305.885 91.3072V110.339L311.375 112.535L310.155 114.975ZM337.041 115.036C335.414 115.362 333.462 115.524 331.185 115.524C328.501 115.524 326.081 114.833 323.926 113.45C321.811 112.027 320.144 110.116 318.924 107.716C317.744 105.317 317.155 102.674 317.155 99.7862C317.155 96.6549 318.11 93.7269 320.022 91.0022C321.933 88.2369 324.312 86.0409 327.159 84.4142C330.046 82.7469 332.832 81.9132 335.516 81.9132C339.379 81.9132 342.368 83.4382 344.483 86.4882C346.638 89.5382 347.716 93.5642 347.716 98.5662H325.146C325.39 102.023 326.325 104.849 327.952 107.045C329.619 109.241 331.876 110.339 334.723 110.339C337.366 110.339 341.128 108.286 346.008 104.178L347.838 106.496L337.041 115.036ZM331.978 87.0372C327.586 87.0372 325.288 90.0465 325.085 96.0652H339.359C338.993 93.8692 338.606 92.2019 338.2 91.0632C337.834 89.8838 337.163 88.9282 336.187 88.1962C335.251 87.4235 333.848 87.0372 331.978 87.0372ZM373.493 81.9132C375.16 81.9132 377.092 82.1572 379.288 82.6452C381.525 83.0925 383.131 83.6009 384.107 84.1702V93.5642H381.789C380.203 91.5309 378.373 89.9449 376.299 88.8062C374.266 87.6268 372.151 87.0372 369.955 87.0372C368.084 87.0372 366.661 87.8709 365.685 89.5382C364.75 91.2055 364.282 93.6455 364.282 96.8582C364.282 100.681 365.116 103.894 366.783 106.496C368.45 109.058 370.829 110.339 373.92 110.339C376.238 110.339 379.532 108.672 383.802 105.337L385.632 107.655L376.238 115.036C374.611 115.362 372.659 115.524 370.382 115.524C367.698 115.524 365.278 114.833 363.123 113.45C361.008 112.027 359.341 110.116 358.121 107.716C356.942 105.317 356.352 102.674 356.352 99.7862C356.352 96.6549 357.226 93.7065 358.975 90.9412C360.764 88.1759 363.001 85.9798 365.685 84.3532C368.369 82.7265 370.972 81.9132 373.493 81.9132ZM410.232 115.036C409.297 115.362 408.158 115.524 406.816 115.524C403.441 115.524 400.96 114.65 399.374 112.901C397.829 111.112 397.056 108.367 397.056 104.666V86.8542H390.468V84.3532L402.058 70.8722H404.376V84.3532H415.356V86.8542H404.376V105.398C404.376 108.692 405.962 110.339 409.134 110.339C409.988 110.339 410.802 110.156 411.574 109.79C412.388 109.424 413.384 108.774 414.563 107.838L416.393 110.156L410.232 115.036Z" fill="black"/>
<path d="M31.67 66.4192H30.67V67.4192H31.67V66.4192ZM42.772 69.4692L42.2372 70.3142L42.2434 70.3181L42.2497 70.3219L42.772 69.4692ZM50.275 77.8262L49.3765 78.2652L49.3806 78.2734L50.275 77.8262ZM48.872 102.836L48.0492 102.268L48.048 102.27L48.872 102.836ZM38.807 112.169L39.3031 113.037L39.306 113.036L38.807 112.169ZM21.666 115.28L21.7718 114.286L21.7513 114.284L21.7308 114.282L21.666 115.28ZM6.66 114.975H5.66V115.975H6.66V114.975ZM6.66 113.084L6.04144 112.298L5.66 112.599V113.084H6.66ZM12.394 108.57L13.0126 109.356L13.394 109.056V108.57H12.394ZM12.394 71.4822H13.394V70.757L12.7047 70.5317L12.394 71.4822ZM6.05 69.4082L5.15557 68.961L4.63691 69.9983L5.73926 70.3587L6.05 69.4082ZM7.27 66.9682V65.9682H6.65197L6.37557 66.521L7.27 66.9682ZM25.631 66.6022L25.5723 65.6039L25.5645 65.6044L25.631 66.6022ZM31.67 66.3582H32.67V65.3582H31.67V66.3582ZM37.038 108.753L37.5795 109.594L37.5894 109.587L37.038 108.753ZM42.65 102.226L41.753 101.784L41.7503 101.79L42.65 102.226ZM42.772 81.5472L41.8375 81.9032L41.8389 81.9069L42.772 81.5472ZM36.794 73.3732L36.1843 74.1658L36.1901 74.1703L36.794 73.3732ZM20.019 72.5192L19.4498 71.697L19.019 71.9952V72.5192H20.019ZM20.019 109.546H19.019V110.217L19.6398 110.471L20.019 109.546ZM31.67 66.4192V67.4192C35.6893 67.4192 39.2006 68.3923 42.2372 70.3142L42.772 69.4692L43.3068 68.6242C39.9181 66.4794 36.0281 65.4192 31.67 65.4192V66.4192ZM42.772 69.4692L42.2497 70.3219C45.3335 72.2108 47.7075 74.8495 49.3765 78.2652L50.275 77.8262L51.1735 77.3872C49.3452 73.6455 46.7172 70.7129 43.2943 68.6164L42.772 69.4692ZM50.275 77.8262L49.3806 78.2734C51.092 81.6963 51.959 85.5864 51.959 89.9652H52.959H53.959C53.959 85.316 53.0366 81.1134 51.1694 77.379L50.275 77.8262ZM52.959 89.9652H51.959C51.959 94.3909 50.6627 98.4842 48.0492 102.268L48.872 102.836L49.6948 103.405C52.5307 99.2988 53.959 94.8115 53.959 89.9652H52.959ZM48.872 102.836L48.048 102.27C45.4468 106.053 42.202 109.061 38.308 111.303L38.807 112.169L39.306 113.036C43.464 110.642 46.9292 107.427 49.696 103.403L48.872 102.836ZM38.807 112.169L38.3109 111.301C34.4388 113.514 30.786 114.585 27.339 114.585V115.585V116.585C31.212 116.585 35.2046 115.379 39.3031 113.037L38.807 112.169ZM27.339 115.585V114.585C25.5046 114.585 23.6489 114.485 21.7718 114.286L21.666 115.28L21.5602 116.275C23.5057 116.482 25.432 116.585 27.339 116.585V115.585ZM21.666 115.28L21.7308 114.282C18.5925 114.078 16.1475 113.975 14.407 113.975V114.975V115.975C16.0825 115.975 18.4768 116.075 21.6012 116.278L21.666 115.28ZM14.407 114.975V113.975H6.66V114.975V115.975H14.407V114.975ZM6.66 114.975H7.66V113.084H6.66H5.66V114.975H6.66ZM6.66 113.084L7.27856 113.87L13.0126 109.356L12.394 108.57L11.7754 107.784L6.04144 112.298L6.66 113.084ZM12.394 108.57H13.394V71.4822H12.394H11.394V108.57H12.394ZM12.394 71.4822L12.7047 70.5317L6.36074 68.4577L6.05 69.4082L5.73926 70.3587L12.0833 72.4327L12.394 71.4822ZM6.05 69.4082L6.94443 69.8554L8.16443 67.4154L7.27 66.9682L6.37557 66.521L5.15557 68.961L6.05 69.4082ZM7.27 66.9682V67.9682H14.346V66.9682V65.9682H7.27V66.9682ZM14.346 66.9682V67.9682C18.2304 67.9682 22.0142 67.8455 25.6975 67.6L25.631 66.6022L25.5645 65.6044C21.9278 65.8468 18.1883 65.9682 14.346 65.9682V66.9682ZM25.631 66.6022L25.6897 67.6005C28.4529 67.4379 30.4409 67.3582 31.67 67.3582V66.3582V65.3582C30.3778 65.3582 28.3398 65.4411 25.5723 65.6039L25.631 66.6022ZM31.67 66.3582H30.67V66.4192H31.67H32.67V66.3582H31.67ZM29.047 111.071V112.071C32.1618 112.071 35.0143 111.246 37.5795 109.594L37.038 108.753L36.4965 107.912C34.263 109.351 31.7882 110.071 29.047 110.071V111.071ZM37.038 108.753L37.5894 109.587C40.1487 107.896 42.1349 105.578 43.5497 102.663L42.65 102.226L41.7503 101.79C40.4811 104.405 38.7259 106.439 36.4866 107.919L37.038 108.753ZM42.65 102.226L43.547 102.668C45.0043 99.7108 45.724 96.4258 45.724 92.8322H44.724H43.724C43.724 96.1519 43.061 99.1296 41.753 101.784L42.65 102.226ZM44.724 92.8322H45.724C45.724 88.579 45.0566 84.6931 43.7051 81.1874L42.772 81.5472L41.8389 81.9069C43.09 85.1519 43.724 88.7894 43.724 92.8322H44.724ZM42.772 81.5472L43.7065 81.1912C42.3444 77.6156 40.244 74.7322 37.3979 72.5761L36.794 73.3732L36.1901 74.1703C38.712 76.0808 40.597 78.6467 41.8375 81.9032L42.772 81.5472ZM36.794 73.3732L37.4037 72.5806C34.5551 70.3893 31.0354 69.3232 26.912 69.3232V70.3232V71.3232C30.6779 71.3232 33.7462 72.2904 36.1843 74.1658L36.794 73.3732ZM26.912 70.3232V69.3232C24.2201 69.3232 21.7252 70.1217 19.4498 71.697L20.019 72.5192L20.5882 73.3414C22.5422 71.9886 24.6426 71.3232 26.912 71.3232V70.3232ZM20.019 72.5192H19.019V109.546H20.019H21.019V72.5192H20.019ZM20.019 109.546L19.6398 110.471C22.2726 111.55 25.4184 112.071 29.047 112.071V111.071V110.071C25.5996 110.071 22.7268 109.575 20.3982 108.621L20.019 109.546ZM81.365 115.036L81.5611 116.017L81.7968 115.97L81.9854 115.821L81.365 115.036ZM68.25 113.45L67.6916 114.28L67.7008 114.286L67.71 114.292L68.25 113.45ZM63.248 107.716L62.3505 108.157L62.3566 108.169L63.248 107.716ZM64.346 91.0022L65.1647 91.5765L65.1686 91.5708L64.346 91.0022ZM71.483 84.4142L71.9791 85.2824L71.9831 85.2802L71.483 84.4142ZM88.807 86.4882L87.9852 87.058L87.9903 87.0653L88.807 86.4882ZM92.04 98.5662V99.5662H93.04V98.5662H92.04ZM69.47 98.5662V97.5662H68.3969L68.4725 98.6366L69.47 98.5662ZM72.276 107.045L71.4724 107.64L71.4795 107.65L72.276 107.045ZM90.332 104.178L91.1169 103.559L90.4775 102.749L89.688 103.413L90.332 104.178ZM92.162 106.496L92.7823 107.281L93.5659 106.661L92.9469 105.877L92.162 106.496ZM69.409 96.0652L68.4096 96.0314L68.3746 97.0652H69.409V96.0652ZM83.683 96.0652V97.0652H84.8634L84.6694 95.9008L83.683 96.0652ZM82.524 91.0632L81.5689 91.3596L81.5752 91.3797L81.5822 91.3995L82.524 91.0632ZM80.511 88.1962L79.8741 88.9671L79.8922 88.9821L79.911 88.9962L80.511 88.1962ZM81.365 115.036L81.1689 114.056C79.6256 114.364 77.7429 114.524 75.509 114.524V115.524V116.524C77.8297 116.524 79.851 116.359 81.5611 116.017L81.365 115.036ZM75.509 115.524V114.524C73.0067 114.524 70.7762 113.883 68.7899 112.608L68.25 113.45L67.71 114.292C70.0345 115.783 72.6432 116.524 75.509 116.524V115.524ZM68.25 113.45L68.8084 112.621C66.8429 111.298 65.2867 109.519 64.1394 107.263L63.248 107.716L62.3566 108.169C63.6493 110.712 65.4277 112.756 67.6916 114.28L68.25 113.45ZM63.248 107.716L64.1454 107.275C63.0389 105.024 62.479 102.533 62.479 99.7862H61.479H60.479C60.479 102.814 61.0984 105.61 62.3505 108.157L63.248 107.716ZM61.479 99.7862H62.479C62.479 96.8736 63.3635 94.1441 65.1646 91.5765L64.346 91.0022L63.5273 90.4279C61.5058 93.3096 60.479 96.4361 60.479 99.7862H61.479ZM64.346 91.0022L65.1686 91.5708C66.9971 88.9253 69.2657 86.833 71.9791 85.2824L71.483 84.4142L70.9868 83.5459C68.007 85.2487 65.5175 87.5484 63.5234 90.4336L64.346 91.0022ZM71.483 84.4142L71.9831 85.2802C74.7548 83.6796 77.3693 82.9132 79.84 82.9132V81.9132V80.9132C76.9426 80.9132 73.9858 81.8141 70.9829 83.5482L71.483 84.4142ZM79.84 81.9132V82.9132C83.3914 82.9132 86.0663 84.2903 87.9852 87.058L88.807 86.4882L89.6288 85.9184C87.3184 82.5861 84.0153 80.9132 79.84 80.9132V81.9132ZM88.807 86.4882L87.9903 87.0653C89.9919 89.8977 91.04 93.7018 91.04 98.5662H92.04H93.04C93.04 93.4266 91.9327 89.1786 89.6236 85.9111L88.807 86.4882ZM92.04 98.5662V97.5662H69.47V98.5662V99.5662H92.04V98.5662ZM69.47 98.5662L68.4725 98.6366C68.7263 102.233 69.7057 105.255 71.4724 107.64L72.276 107.045L73.0795 106.45C71.5929 104.443 70.7017 101.813 70.4675 98.4958L69.47 98.5662ZM72.276 107.045L71.4795 107.65C73.343 110.104 75.8995 111.339 79.047 111.339V110.339V109.339C76.5011 109.339 74.5436 108.378 73.0724 106.44L72.276 107.045ZM79.047 110.339V111.339C80.6093 111.339 82.3837 110.739 84.3299 109.677C86.2902 108.606 88.507 107.021 90.9759 104.943L90.332 104.178L89.688 103.413C87.2769 105.442 85.173 106.938 83.3716 107.921C81.5561 108.912 80.128 109.339 79.047 109.339V110.339ZM90.332 104.178L89.5471 104.798L91.3771 107.116L92.162 106.496L92.9469 105.877L91.1169 103.559L90.332 104.178ZM92.162 106.496L91.5416 105.712L80.7446 114.252L81.365 115.036L81.9854 115.821L92.7823 107.281L92.162 106.496ZM76.302 87.0372V86.0372C73.8507 86.0372 71.8598 86.8932 70.4899 88.6873C69.1603 90.4287 68.5144 92.9276 68.4096 96.0314L69.409 96.0652L70.4084 96.0989C70.5069 93.1841 71.1115 91.169 72.0796 89.901C73.0074 88.6858 74.3612 88.0372 76.302 88.0372V87.0372ZM69.409 96.0652V97.0652H83.683V96.0652V95.0652H69.409V96.0652ZM83.683 96.0652L84.6694 95.9008C84.3003 93.6863 83.9025 91.9497 83.4657 90.7268L82.524 91.0632L81.5822 91.3995C81.9588 92.454 82.3337 94.0521 82.6966 96.2296L83.683 96.0652ZM82.524 91.0632L83.479 90.7668C83.0515 89.389 82.2576 88.2561 81.111 87.3962L80.511 88.1962L79.911 88.9962C80.7164 89.6002 81.2645 90.3787 81.5689 91.3596L82.524 91.0632ZM80.511 88.1962L81.1479 87.4252C79.9587 86.4429 78.2853 86.0372 76.302 86.0372V87.0372V88.0372C78.06 88.0372 79.1926 88.4042 79.8741 88.9671L80.511 88.1962ZM131.969 84.4142L132.862 84.8657L132.969 84.6528V84.4142H131.969ZM116.536 114.914V115.914H117.151L117.429 115.366L116.536 114.914ZM111.9 114.914L110.975 115.293L111.229 115.914H111.9V114.914ZM102.384 91.6732L103.31 91.2943L103.181 90.9793L102.886 90.8084L102.384 91.6732ZM96.7113 88.3792H95.7113V88.9549L96.2091 89.244L96.7113 88.3792ZM96.7113 86.4882L96.2703 85.5906L95.7113 85.8653V86.4882H96.7113ZM107.142 81.3642L108.112 81.1201L107.81 79.9218L106.701 80.4666L107.142 81.3642ZM109.46 90.5752L108.49 90.8192L108.508 90.8882L108.535 90.9541L109.46 90.5752ZM116.902 108.753L115.977 109.132L116.829 111.212L117.803 109.187L116.902 108.753ZM125.503 90.8802L126.404 91.3138L126.766 90.5631L126.093 90.0722L125.503 90.8802ZM117.39 84.9632L116.496 84.516L116.117 85.2726L116.801 85.7711L117.39 84.9632ZM118.61 82.5232V81.5232H117.992L117.716 82.076L118.61 82.5232ZM131.969 82.5232H132.969V81.5232H131.969V82.5232ZM131.969 84.4142L131.077 83.9627L115.644 114.463L116.536 114.914L117.429 115.366L132.862 84.8657L131.969 84.4142ZM116.536 114.914V113.914H111.9V114.914V115.914H116.536V114.914ZM111.9 114.914L112.826 114.535L103.31 91.2943L102.384 91.6732L101.459 92.0521L110.975 115.293L111.9 114.914ZM102.384 91.6732L102.886 90.8084L97.2134 87.5144L96.7113 88.3792L96.2091 89.244L101.882 92.538L102.384 91.6732ZM96.7113 88.3792H97.7113V86.4882H96.7113H95.7113V88.3792H96.7113ZM96.7113 86.4882L97.1522 87.3857L107.583 82.2617L107.142 81.3642L106.701 80.4666L96.2703 85.5906L96.7113 86.4882ZM107.142 81.3642L106.172 81.6082L108.49 90.8192L109.46 90.5752L110.43 90.3311L108.112 81.1201L107.142 81.3642ZM109.46 90.5752L108.535 90.9541L115.977 109.132L116.902 108.753L117.828 108.374L110.386 90.1963L109.46 90.5752ZM116.902 108.753L117.803 109.187L126.404 91.3138L125.503 90.8802L124.602 90.4466L116.001 108.32L116.902 108.753ZM125.503 90.8802L126.093 90.0722L117.98 84.1552L117.39 84.9632L116.801 85.7711L124.914 91.6881L125.503 90.8802ZM117.39 84.9632L118.285 85.4104L119.505 82.9704L118.61 82.5232L117.716 82.076L116.496 84.516L117.39 84.9632ZM118.61 82.5232V83.5232H131.969V82.5232V81.5232H118.61V82.5232ZM131.969 82.5232H130.969V84.4142H131.969H132.969V82.5232H131.969ZM172.175 66.6632L171.963 67.6404L171.966 67.641L172.175 66.6632ZM178.397 68.6152H179.397V68.0141L178.867 67.7321L178.397 68.6152ZM178.397 80.4492V81.4492H179.397V80.4492H178.397ZM176.079 80.4492L175.217 80.9548L175.506 81.4492H176.079V80.4492ZM153.814 73.2512L154.39 74.069L154.393 74.0669L153.814 73.2512ZM148.629 79.7782L149.539 80.193L149.542 80.188L148.629 79.7782ZM148.568 100.03L147.631 100.378L147.634 100.388L148.568 100.03ZM154.241 107.96L153.621 108.745L153.627 108.75L154.241 107.96ZM178.58 103.141L179.428 102.611L178.831 101.656L177.953 102.362L178.58 103.141ZM180.41 106.069L181.024 106.859L181.737 106.305L181.258 105.539L180.41 106.069ZM169.186 114.792L169.518 115.736L169.671 115.682L169.8 115.582L169.186 114.792ZM164.794 115.829L164.681 114.836L164.665 114.837L164.649 114.84L164.794 115.829ZM148.934 113.023L148.402 113.869L148.934 113.023ZM141.248 104.483L140.354 104.93L140.356 104.934L141.248 104.483ZM142.651 78.8632L143.476 79.4294L143.478 79.4255L142.651 78.8632ZM152.96 69.2862L153.452 70.1571L153.458 70.1534L152.96 69.2862ZM164.733 65.7482V66.7482C166.798 66.7482 169.205 67.0409 171.963 67.6404L172.175 66.6632L172.388 65.686C169.534 65.0655 166.979 64.7482 164.733 64.7482V65.7482ZM172.175 66.6632L171.966 67.641C174.792 68.2466 176.754 68.8745 177.928 69.4983L178.397 68.6152L178.867 67.7321C177.438 66.9732 175.252 66.2998 172.385 65.6854L172.175 66.6632ZM178.397 68.6152H177.397V80.4492H178.397H179.397V68.6152H178.397ZM178.397 80.4492V79.4492H176.079V80.4492V81.4492H178.397V80.4492ZM176.079 80.4492L176.942 79.9436C173.063 73.3238 167.807 69.8722 161.195 69.8722V70.8722V71.8722C166.946 71.8722 171.613 74.8052 175.217 80.9548L176.079 80.4492ZM161.195 70.8722V69.8722C158.299 69.8722 155.638 70.7323 153.236 72.4355L153.814 73.2512L154.393 74.0669C156.464 72.598 158.723 71.8722 161.195 71.8722V70.8722ZM153.814 73.2512L153.239 72.4334C150.876 74.0963 149.041 76.4229 147.717 79.3684L148.629 79.7782L149.542 80.188C150.74 77.5215 152.361 75.4967 154.39 74.069L153.814 73.2512ZM148.629 79.7782L147.719 79.3634C146.392 82.2757 145.738 85.5311 145.738 89.1112H146.738H147.738C147.738 85.778 148.346 82.8113 149.539 80.193L148.629 79.7782ZM146.738 89.1112H145.738C145.738 93.1993 146.364 96.9584 147.631 100.377L148.568 100.03L149.506 99.6829C148.332 96.5139 147.738 92.9938 147.738 89.1112H146.738ZM148.568 100.03L147.634 100.388C148.953 103.833 150.945 106.63 153.621 108.745L154.241 107.96L154.861 107.176C152.495 105.305 150.705 102.816 149.502 99.6728L148.568 100.03ZM154.241 107.96L153.627 108.75C156.391 110.899 159.768 111.949 163.696 111.949V110.949V109.949C160.142 109.949 157.216 109.007 154.855 107.171L154.241 107.96ZM163.696 110.949V111.949C165.657 111.949 167.93 111.218 170.474 109.883C173.033 108.541 175.946 106.546 179.207 103.92L178.58 103.141L177.953 102.362C174.749 104.942 171.948 106.851 169.545 108.112C167.129 109.379 165.192 109.949 163.696 109.949V110.949ZM178.58 103.141L177.732 103.671L179.562 106.599L180.41 106.069L181.258 105.539L179.428 102.611L178.58 103.141ZM180.41 106.069L179.797 105.28L168.573 114.003L169.186 114.792L169.8 115.582L181.024 106.859L180.41 106.069ZM169.186 114.792L168.855 113.849C167.413 114.355 166.022 114.682 164.681 114.836L164.794 115.829L164.908 116.823C166.413 116.651 167.951 116.286 169.518 115.736L169.186 114.792ZM164.794 115.829L164.649 114.84C163.321 115.035 161.866 115.134 160.28 115.134V116.134V117.134C161.948 117.134 163.502 117.03 164.94 116.819L164.794 115.829ZM160.28 116.134V115.134C156.18 115.134 152.586 114.141 149.467 112.177L148.934 113.023L148.402 113.869C151.87 116.054 155.841 117.134 160.28 117.134V116.134ZM148.934 113.023L149.467 112.177C146.333 110.204 143.893 107.497 142.141 104.032L141.248 104.483L140.356 104.934C142.264 108.708 144.948 111.695 148.402 113.869L148.934 113.023ZM141.248 104.483L142.143 104.036C140.391 100.532 139.503 96.5407 139.503 92.0392H138.503H137.503C137.503 96.8096 138.446 101.114 140.354 104.93L141.248 104.483ZM138.503 92.0392H139.503C139.503 87.489 140.822 83.2934 143.476 79.4294L142.651 78.8632L141.827 78.297C138.951 82.4849 137.503 87.0734 137.503 92.0392H138.503ZM142.651 78.8632L143.478 79.4255C146.161 75.4805 149.484 72.3961 153.452 70.1571L152.96 69.2862L152.469 68.4153C148.222 70.8122 144.673 74.1125 141.824 78.3009L142.651 78.8632ZM152.96 69.2862L153.458 70.1534C157.454 67.859 161.207 66.7482 164.733 66.7482V65.7482V64.7482C160.777 64.7482 156.682 65.9961 152.462 68.419L152.96 69.2862ZM214.101 84.0482L213.543 84.8778L213.552 84.8839L213.562 84.8899L214.101 84.0482ZM219.103 89.7212L218.206 90.1623L218.212 90.1744L219.103 89.7212ZM218.066 106.496L218.885 107.07L218.889 107.065L218.066 106.496ZM210.868 113.084L211.365 113.952L211.369 113.95L210.868 113.084ZM195.313 113.45L194.755 114.28L194.764 114.286L194.774 114.292L195.313 113.45ZM190.311 107.716L189.414 108.157L189.42 108.169L190.311 107.716ZM191.409 91.0022L192.228 91.5765L192.232 91.5708L191.409 91.0022ZM198.546 84.4142L199.043 85.2824L199.047 85.2802L198.546 84.4142ZM198.973 106.557L198.131 107.097L198.135 107.103L198.973 106.557ZM210.502 90.9412L209.66 91.4806L209.664 91.4866L210.502 90.9412ZM206.903 81.9132V82.9132C209.4 82.9132 211.602 83.5716 213.543 84.8778L214.101 84.0482L214.66 83.2186C212.371 81.6781 209.775 80.9132 206.903 80.9132V81.9132ZM214.101 84.0482L213.562 84.8899C215.556 86.1697 217.103 87.919 218.206 90.1623L219.103 89.7212L220.001 89.2801C218.745 86.7247 216.957 84.692 214.641 83.2065L214.101 84.0482ZM219.103 89.7212L218.212 90.1744C219.356 92.4233 219.933 94.9097 219.933 97.6512H220.933H221.933C221.933 94.618 221.291 91.8178 219.995 89.2679L219.103 89.7212ZM220.933 97.6512H219.933C219.933 100.564 219.049 103.316 217.244 105.928L218.066 106.496L218.889 107.065C220.907 104.145 221.933 101.001 221.933 97.6512H220.933ZM218.066 106.496L217.248 105.922C215.42 108.527 213.13 110.624 210.368 112.218L210.868 113.084L211.369 113.95C214.382 112.21 216.89 109.915 218.885 107.07L218.066 106.496ZM210.868 113.084L210.372 112.216C207.643 113.775 205.048 114.524 202.572 114.524V115.524V116.524C205.465 116.524 208.4 115.646 211.365 113.952L210.868 113.084ZM202.572 115.524V114.524C200.07 114.524 197.84 113.883 195.853 112.608L195.313 113.45L194.774 114.292C197.098 115.783 199.707 116.524 202.572 116.524V115.524ZM195.313 113.45L195.872 112.621C193.906 111.298 192.35 109.519 191.203 107.263L190.311 107.716L189.42 108.169C190.713 110.712 192.491 112.756 194.755 114.28L195.313 113.45ZM190.311 107.716L191.209 107.275C190.102 105.024 189.542 102.533 189.542 99.7862H188.542H187.542C187.542 102.814 188.162 105.61 189.414 108.157L190.311 107.716ZM188.542 99.7862H189.542C189.542 96.8736 190.427 94.1441 192.228 91.5765L191.409 91.0022L190.591 90.4279C188.569 93.3096 187.542 96.4361 187.542 99.7862H188.542ZM191.409 91.0022L192.232 91.5708C194.061 88.9253 196.329 86.833 199.043 85.2824L198.546 84.4142L198.05 83.5459C195.07 85.2487 192.581 87.5484 190.587 90.4336L191.409 91.0022ZM198.546 84.4142L199.047 85.2802C201.818 83.6796 204.433 82.9132 206.903 82.9132V81.9132V80.9132C204.006 80.9132 201.049 81.8141 198.046 83.5482L198.546 84.4142ZM203.365 87.0372V86.0372C200.798 86.0372 198.743 86.9716 197.377 88.9179C196.057 90.7997 195.472 93.4982 195.472 96.8582H196.472H197.472C197.472 93.6709 198.037 91.4589 199.014 90.0669C199.946 88.7396 201.338 88.0372 203.365 88.0372V87.0372ZM196.472 96.8582H195.472C195.472 100.865 196.338 104.297 198.131 107.097L198.973 106.557L199.815 106.018C198.274 103.612 197.472 100.578 197.472 96.8582H196.472ZM198.973 106.557L198.135 107.103C199.99 109.952 202.686 111.4 206.11 111.4V110.4V109.4C203.354 109.4 201.292 108.286 199.812 106.012L198.973 106.557ZM206.11 110.4V111.4C208.681 111.4 210.735 110.459 212.1 108.502C213.42 106.61 214.003 103.898 214.003 100.518H213.003H212.003C212.003 103.727 211.438 105.955 210.46 107.358C209.527 108.695 208.136 109.4 206.11 109.4V110.4ZM213.003 100.518H214.003C214.003 96.5503 213.137 93.1564 211.341 90.3957L210.502 90.9412L209.664 91.4866C211.202 93.85 212.003 96.8407 212.003 100.518H213.003ZM210.502 90.9412L211.344 90.4018C209.493 87.5121 206.797 86.0372 203.365 86.0372V87.0372V88.0372C206.115 88.0372 208.177 89.1649 209.66 91.4806L210.502 90.9412ZM266.311 114.975V115.975H266.929L267.206 115.422L266.311 114.975ZM254.721 114.975H253.721V115.975H254.721V114.975ZM253.684 89.7212L252.893 90.3326L253.684 89.7212ZM245.937 89.1112L245.596 88.1713L245.586 88.1749L245.937 89.1112ZM241.301 91.9172L240.69 91.1259L240.301 91.4261V91.9172H241.301ZM241.301 110.4H240.301V111.084L240.939 111.332L241.301 110.4ZM246.791 112.535L247.686 112.982L248.176 112.001L247.154 111.603L246.791 112.535ZM245.571 114.975V115.975H246.189L246.466 115.422L245.571 114.975ZM228.552 114.975H227.552V115.975H228.552V114.975ZM228.552 113.084L227.934 112.298L227.552 112.598V113.084H228.552ZM233.981 108.814L234.599 109.6L234.981 109.3V108.814H233.981ZM233.981 91.5512H234.981V90.9773L234.486 90.6878L233.981 91.5512ZM228.552 88.3792H227.552V88.9531L228.048 89.2426L228.552 88.3792ZM228.552 86.4882L228.111 85.5906L227.552 85.8653V86.4882H228.552ZM238.983 81.3642L239.953 81.1181L239.649 79.923L238.542 80.4666L238.983 81.3642ZM240.996 89.2942L240.027 89.5402L240.408 91.0404L241.619 90.0767L240.996 89.2942ZM249.658 82.4012L249.302 81.4667L249.157 81.522L249.036 81.6187L249.658 82.4012ZM259.601 84.4752L258.877 85.1649L258.885 85.1735L259.601 84.4752ZM262.041 110.339H261.041V111.016L261.67 111.268L262.041 110.339ZM267.531 112.535L268.426 112.982L268.912 112.01L267.903 111.607L267.531 112.535ZM266.311 114.975V113.975H254.721V114.975V115.975H266.311V114.975ZM254.721 114.975H255.721V94.4182H254.721H253.721V114.975H254.721ZM254.721 94.4182H255.721C255.721 92.1429 255.382 90.2834 254.476 89.1097L253.684 89.7212L252.893 90.3326C253.369 90.9483 253.721 92.2201 253.721 94.4182H254.721ZM253.684 89.7212L254.476 89.1097C253.506 87.8552 251.88 87.3792 249.963 87.3792V88.3792V89.3792C251.625 89.3792 252.48 89.7979 252.893 90.3326L253.684 89.7212ZM249.963 88.3792V87.3792C248.497 87.3792 247.04 87.6461 245.596 88.1714L245.937 89.1112L246.279 90.051C247.519 89.6002 248.745 89.3792 249.963 89.3792V88.3792ZM245.937 89.1112L245.586 88.1749C244.151 88.7129 242.515 89.7153 240.69 91.1259L241.301 91.9172L241.913 92.7085C243.666 91.3537 245.121 90.4855 246.288 90.0475L245.937 89.1112ZM241.301 91.9172H240.301V110.4H241.301H242.301V91.9172H241.301ZM241.301 110.4L240.939 111.332L246.429 113.467L246.791 112.535L247.154 111.603L241.664 109.468L241.301 110.4ZM246.791 112.535L245.897 112.088L244.677 114.528L245.571 114.975L246.466 115.422L247.686 112.982L246.791 112.535ZM245.571 114.975V113.975H228.552V114.975V115.975H245.571V114.975ZM228.552 114.975H229.552V113.084H228.552H227.552V114.975H228.552ZM228.552 113.084L229.17 113.87L234.599 109.6L233.981 108.814L233.363 108.028L227.934 112.298L228.552 113.084ZM233.981 108.814H234.981V91.5512H233.981H232.981V108.814H233.981ZM233.981 91.5512L234.486 90.6878L229.057 87.5158L228.552 88.3792L228.048 89.2426L233.477 92.4146L233.981 91.5512ZM228.552 88.3792H229.552V86.4882H228.552H227.552V88.3792H228.552ZM228.552 86.4882L228.993 87.3857L239.424 82.2617L238.983 81.3642L238.542 80.4666L228.111 85.5906L228.552 86.4882ZM238.983 81.3642L238.014 81.6102L240.027 89.5402L240.996 89.2942L241.966 89.0481L239.953 81.1181L238.983 81.3642ZM240.996 89.2942L241.619 90.0767L250.281 83.1837L249.658 82.4012L249.036 81.6187L240.374 88.5117L240.996 89.2942ZM249.658 82.4012L250.014 83.3357C250.712 83.0699 251.696 82.9132 253.013 82.9132V81.9132V80.9132C251.565 80.9132 250.313 81.0818 249.302 81.4667L249.658 82.4012ZM253.013 81.9132V82.9132C255.556 82.9132 257.472 83.6893 258.877 85.1648L259.601 84.4752L260.325 83.7855C258.477 81.8451 256.001 80.9132 253.013 80.9132V81.9132ZM259.601 84.4752L258.885 85.1735C260.289 86.6116 261.041 88.6148 261.041 91.3072H262.041H263.041C263.041 88.2249 262.167 85.6734 260.317 83.7769L259.601 84.4752ZM262.041 91.3072H261.041V110.339H262.041H263.041V91.3072H262.041ZM262.041 110.339L261.67 111.268L267.16 113.464L267.531 112.535L267.903 111.607L262.413 109.411L262.041 110.339ZM267.531 112.535L266.637 112.088L265.417 114.528L266.311 114.975L267.206 115.422L268.426 112.982L267.531 112.535ZM310.155 114.975V115.975H310.773L311.049 115.422L310.155 114.975ZM298.565 114.975H297.565V115.975H298.565V114.975ZM297.528 89.7212L296.737 90.3326L297.528 89.7212ZM289.781 89.1112L289.439 88.1713L289.43 88.1749L289.781 89.1112ZM285.145 91.9172L284.534 91.1259L284.145 91.4261V91.9172H285.145ZM285.145 110.4H284.145V111.084L284.783 111.332L285.145 110.4ZM290.635 112.535L291.529 112.982L292.02 112.001L290.997 111.603L290.635 112.535ZM289.415 114.975V115.975H290.033L290.309 115.422L289.415 114.975ZM272.396 114.975H271.396V115.975H272.396V114.975ZM272.396 113.084L271.778 112.298L271.396 112.598V113.084H272.396ZM277.825 108.814L278.443 109.6L278.825 109.3V108.814H277.825ZM277.825 91.5512H278.825V90.9773L278.329 90.6878L277.825 91.5512ZM272.396 88.3792H271.396V88.9531L271.892 89.2426L272.396 88.3792ZM272.396 86.4882L271.955 85.5906L271.396 85.8653V86.4882H272.396ZM282.827 81.3642L283.796 81.1181L283.493 79.923L282.386 80.4666L282.827 81.3642ZM284.84 89.2942L283.871 89.5402L284.252 91.0404L285.463 90.0767L284.84 89.2942ZM293.502 82.4012L293.146 81.4667L293.001 81.522L292.879 81.6187L293.502 82.4012ZM303.445 84.4752L302.721 85.1649L302.729 85.1735L303.445 84.4752ZM305.885 110.339H304.885V111.016L305.514 111.268L305.885 110.339ZM311.375 112.535L312.269 112.982L312.755 112.01L311.746 111.607L311.375 112.535ZM310.155 114.975V113.975H298.565V114.975V115.975H310.155V114.975ZM298.565 114.975H299.565V94.4182H298.565H297.565V114.975H298.565ZM298.565 94.4182H299.565C299.565 92.1429 299.226 90.2834 298.319 89.1097L297.528 89.7212L296.737 90.3326C297.212 90.9483 297.565 92.2201 297.565 94.4182H298.565ZM297.528 89.7212L298.319 89.1097C297.35 87.8552 295.724 87.3792 293.807 87.3792V88.3792V89.3792C295.469 89.3792 296.324 89.7979 296.737 90.3326L297.528 89.7212ZM293.807 88.3792V87.3792C292.341 87.3792 290.884 87.6461 289.439 88.1714L289.781 89.1112L290.123 90.051C291.362 89.6002 292.589 89.3792 293.807 89.3792V88.3792ZM289.781 89.1112L289.43 88.1749C287.995 88.7129 286.359 89.7153 284.534 91.1259L285.145 91.9172L285.756 92.7085C287.51 91.3537 288.964 90.4855 290.132 90.0475L289.781 89.1112ZM285.145 91.9172H284.145V110.4H285.145H286.145V91.9172H285.145ZM285.145 110.4L284.783 111.332L290.273 113.467L290.635 112.535L290.997 111.603L285.507 109.468L285.145 110.4ZM290.635 112.535L289.741 112.088L288.521 114.528L289.415 114.975L290.309 115.422L291.529 112.982L290.635 112.535ZM289.415 114.975V113.975H272.396V114.975V115.975H289.415V114.975ZM272.396 114.975H273.396V113.084H272.396H271.396V114.975H272.396ZM272.396 113.084L273.014 113.87L278.443 109.6L277.825 108.814L277.207 108.028L271.778 112.298L272.396 113.084ZM277.825 108.814H278.825V91.5512H277.825H276.825V108.814H277.825ZM277.825 91.5512L278.329 90.6878L272.9 87.5158L272.396 88.3792L271.892 89.2426L277.321 92.4146L277.825 91.5512ZM272.396 88.3792H273.396V86.4882H272.396H271.396V88.3792H272.396ZM272.396 86.4882L272.837 87.3857L283.268 82.2617L282.827 81.3642L282.386 80.4666L271.955 85.5906L272.396 86.4882ZM282.827 81.3642L281.858 81.6102L283.871 89.5402L284.84 89.2942L285.809 89.0481L283.796 81.1181L282.827 81.3642ZM284.84 89.2942L285.463 90.0767L294.125 83.1837L293.502 82.4012L292.879 81.6187L284.217 88.5117L284.84 89.2942ZM293.502 82.4012L293.858 83.3357C294.556 83.0699 295.54 82.9132 296.857 82.9132V81.9132V80.9132C295.409 80.9132 294.156 81.0818 293.146 81.4667L293.502 82.4012ZM296.857 81.9132V82.9132C299.4 82.9132 301.316 83.6893 302.721 85.1648L303.445 84.4752L304.169 83.7855C302.321 81.8451 299.845 80.9132 296.857 80.9132V81.9132ZM303.445 84.4752L302.729 85.1735C304.132 86.6116 304.885 88.6148 304.885 91.3072H305.885H306.885C306.885 88.2249 306.011 85.6734 304.161 83.7769L303.445 84.4752ZM305.885 91.3072H304.885V110.339H305.885H306.885V91.3072H305.885ZM305.885 110.339L305.514 111.268L311.004 113.464L311.375 112.535L311.746 111.607L306.256 109.411L305.885 110.339ZM311.375 112.535L310.481 112.088L309.261 114.528L310.155 114.975L311.049 115.422L312.269 112.982L311.375 112.535ZM337.041 115.036L337.237 116.017L337.473 115.97L337.661 115.821L337.041 115.036ZM323.926 113.45L323.367 114.28L323.377 114.286L323.386 114.292L323.926 113.45ZM318.924 107.716L318.026 108.157L318.032 108.169L318.924 107.716ZM320.022 91.0022L320.84 91.5765L320.844 91.5708L320.022 91.0022ZM327.159 84.4142L327.655 85.2824L327.659 85.2802L327.159 84.4142ZM344.483 86.4882L343.661 87.058L343.666 87.0653L344.483 86.4882ZM347.716 98.5662V99.5662H348.716V98.5662H347.716ZM325.146 98.5662V97.5662H324.073L324.148 98.6366L325.146 98.5662ZM327.952 107.045L327.148 107.64L327.155 107.65L327.952 107.045ZM346.008 104.178L346.793 103.559L346.153 102.749L345.364 103.413L346.008 104.178ZM347.838 106.496L348.458 107.281L349.242 106.661L348.623 105.877L347.838 106.496ZM325.085 96.0652L324.085 96.0314L324.05 97.0652H325.085V96.0652ZM339.359 96.0652V97.0652H340.539L340.345 95.9008L339.359 96.0652ZM338.2 91.0632L337.245 91.3596L337.251 91.3797L337.258 91.3995L338.2 91.0632ZM336.187 88.1962L335.55 88.9671L335.568 88.9821L335.587 88.9962L336.187 88.1962ZM337.041 115.036L336.845 114.056C335.301 114.364 333.419 114.524 331.185 114.524V115.524V116.524C333.505 116.524 335.527 116.359 337.237 116.017L337.041 115.036ZM331.185 115.524V114.524C328.682 114.524 326.452 113.883 324.466 112.608L323.926 113.45L323.386 114.292C325.71 115.783 328.319 116.524 331.185 116.524V115.524ZM323.926 113.45L324.484 112.621C322.519 111.298 320.962 109.519 319.815 107.263L318.924 107.716L318.032 108.169C319.325 110.712 321.104 112.756 323.367 114.28L323.926 113.45ZM318.924 107.716L319.821 107.275C318.715 105.024 318.155 102.533 318.155 99.7862H317.155H316.155C316.155 102.814 316.774 105.61 318.026 108.157L318.924 107.716ZM317.155 99.7862H318.155C318.155 96.8736 319.039 94.1441 320.84 91.5765L320.022 91.0022L319.203 90.4279C317.182 93.3096 316.155 96.4361 316.155 99.7862H317.155ZM320.022 91.0022L320.844 91.5708C322.673 88.9253 324.941 86.833 327.655 85.2824L327.159 84.4142L326.663 83.5459C323.683 85.2487 321.193 87.5484 319.199 90.4336L320.022 91.0022ZM327.159 84.4142L327.659 85.2802C330.431 83.6796 333.045 82.9132 335.516 82.9132V81.9132V80.9132C332.618 80.9132 329.662 81.8141 326.659 83.5482L327.159 84.4142ZM335.516 81.9132V82.9132C339.067 82.9132 341.742 84.2903 343.661 87.058L344.483 86.4882L345.305 85.9184C342.994 82.5861 339.691 80.9132 335.516 80.9132V81.9132ZM344.483 86.4882L343.666 87.0653C345.668 89.8977 346.716 93.7018 346.716 98.5662H347.716H348.716C348.716 93.4266 347.609 89.1786 345.299 85.9111L344.483 86.4882ZM347.716 98.5662V97.5662H325.146V98.5662V99.5662H347.716V98.5662ZM325.146 98.5662L324.148 98.6366C324.402 102.233 325.382 105.255 327.148 107.64L327.952 107.045L328.755 106.45C327.269 104.443 326.377 101.813 326.143 98.4958L325.146 98.5662ZM327.952 107.045L327.155 107.65C329.019 110.104 331.575 111.339 334.723 111.339V110.339V109.339C332.177 109.339 330.219 108.378 328.748 106.44L327.952 107.045ZM334.723 110.339V111.339C336.285 111.339 338.059 110.739 340.006 109.677C341.966 108.606 344.183 107.021 346.652 104.943L346.008 104.178L345.364 103.413C342.953 105.442 340.849 106.938 339.047 107.921C337.232 108.912 335.804 109.339 334.723 109.339V110.339ZM346.008 104.178L345.223 104.798L347.053 107.116L347.838 106.496L348.623 105.877L346.793 103.559L346.008 104.178ZM347.838 106.496L347.217 105.712L336.42 114.252L337.041 115.036L337.661 115.821L348.458 107.281L347.838 106.496ZM331.978 87.0372V86.0372C329.527 86.0372 327.536 86.8932 326.166 88.6873C324.836 90.4287 324.19 92.9276 324.085 96.0314L325.085 96.0652L326.084 96.0989C326.183 93.1841 326.787 91.169 327.755 89.901C328.683 88.6858 330.037 88.0372 331.978 88.0372V87.0372ZM325.085 96.0652V97.0652H339.359V96.0652V95.0652H325.085V96.0652ZM339.359 96.0652L340.345 95.9008C339.976 93.6863 339.578 91.9497 339.142 90.7268L338.2 91.0632L337.258 91.3995C337.635 92.454 338.009 94.0521 338.372 96.2296L339.359 96.0652ZM338.2 91.0632L339.155 90.7668C338.727 89.389 337.933 88.2561 336.787 87.3962L336.187 88.1962L335.587 88.9962C336.392 89.6002 336.94 90.3787 337.245 91.3596L338.2 91.0632ZM336.187 88.1962L336.824 87.4252C335.634 86.4429 333.961 86.0372 331.978 86.0372V87.0372V88.0372C333.736 88.0372 334.868 88.4042 335.55 88.9671L336.187 88.1962ZM379.288 82.6452L379.071 83.6214L379.081 83.6237L379.092 83.6258L379.288 82.6452ZM384.107 84.1702H385.107V83.5958L384.611 83.3064L384.107 84.1702ZM384.107 93.5642V94.5642H385.107V93.5642H384.107ZM381.789 93.5642L381.001 94.1792L381.301 94.5642H381.789V93.5642ZM376.299 88.8062L375.797 89.6712L375.807 89.6771L375.818 89.6828L376.299 88.8062ZM365.685 89.5382L364.822 89.033L364.817 89.0409L364.813 89.0489L365.685 89.5382ZM366.783 106.496L365.941 107.036L365.945 107.042L366.783 106.496ZM383.802 105.337L384.587 104.718L383.971 103.937L383.187 104.549L383.802 105.337ZM385.632 107.655L386.25 108.442L387.038 107.822L386.417 107.036L385.632 107.655ZM376.238 115.036L376.434 116.017L376.668 115.97L376.856 115.823L376.238 115.036ZM363.123 113.45L362.565 114.28L362.574 114.286L362.583 114.292L363.123 113.45ZM358.121 107.716L357.224 108.157L357.23 108.169L358.121 107.716ZM358.975 90.9412L358.135 90.3979L358.13 90.4067L358.975 90.9412ZM365.685 84.3532L365.167 83.498L365.685 84.3532ZM373.493 81.9132V82.9132C375.067 82.9132 376.923 83.1441 379.071 83.6214L379.288 82.6452L379.505 81.669C377.261 81.1703 375.254 80.9132 373.493 80.9132V81.9132ZM379.288 82.6452L379.092 83.6258C381.307 84.0688 382.777 84.5521 383.603 85.034L384.107 84.1702L384.611 83.3064C383.485 82.6496 381.742 82.1162 379.484 81.6646L379.288 82.6452ZM384.107 84.1702H383.107V93.5642H384.107H385.107V84.1702H384.107ZM384.107 93.5642V92.5642H381.789V93.5642V94.5642H384.107V93.5642ZM381.789 93.5642L382.578 92.9492C380.916 90.8184 378.984 89.1394 376.78 87.9296L376.299 88.8062L375.818 89.6828C377.762 90.7504 379.491 92.2433 381.001 94.1792L381.789 93.5642ZM376.299 88.8062L376.801 87.9412C374.626 86.6799 372.34 86.0372 369.955 86.0372V87.0372V88.0372C371.962 88.0372 373.905 88.5738 375.797 89.6712L376.299 88.8062ZM369.955 87.0372V86.0372C367.715 86.0372 365.97 87.0716 364.822 89.033L365.685 89.5382L366.548 90.0434C367.352 88.6701 368.454 88.0372 369.955 88.0372V87.0372ZM365.685 89.5382L364.813 89.0489C363.755 90.9352 363.282 93.577 363.282 96.8582H364.282H365.282C365.282 93.7141 365.745 91.4759 366.557 90.0274L365.685 89.5382ZM364.282 96.8582H363.282C363.282 100.827 364.149 104.238 365.941 107.036L366.783 106.496L367.625 105.957C366.083 103.549 365.282 100.535 365.282 96.8582H364.282ZM366.783 106.496L365.945 107.042C367.799 109.891 370.496 111.339 373.92 111.339V110.339V109.339C371.163 109.339 369.102 108.225 367.621 105.951L366.783 106.496ZM373.92 110.339V111.339C375.302 111.339 376.868 110.848 378.581 109.981C380.306 109.108 382.253 107.816 384.418 106.125L383.802 105.337L383.187 104.549C381.081 106.193 379.247 107.402 377.677 108.196C376.096 108.997 374.856 109.339 373.92 109.339V110.339ZM383.802 105.337L383.017 105.957L384.847 108.275L385.632 107.655L386.417 107.036L384.587 104.718L383.802 105.337ZM385.632 107.655L385.014 106.869L375.62 114.25L376.238 115.036L376.856 115.823L386.25 108.442L385.632 107.655ZM376.238 115.036L376.042 114.056C374.499 114.364 372.616 114.524 370.382 114.524V115.524V116.524C372.703 116.524 374.724 116.359 376.434 116.017L376.238 115.036ZM370.382 115.524V114.524C367.88 114.524 365.649 113.883 363.663 112.608L363.123 113.45L362.583 114.292C364.908 115.783 367.516 116.524 370.382 116.524V115.524ZM363.123 113.45L363.681 112.621C361.716 111.298 360.16 109.519 359.012 107.263L358.121 107.716L357.23 108.169C358.522 110.712 360.301 112.756 362.565 114.28L363.123 113.45ZM358.121 107.716L359.018 107.275C357.912 105.024 357.352 102.533 357.352 99.7862H356.352H355.352C355.352 102.814 355.971 105.61 357.224 108.157L358.121 107.716ZM356.352 99.7862H357.352C357.352 96.8528 358.168 94.0886 359.82 91.4756L358.975 90.9412L358.13 90.4067C356.285 93.3244 355.352 96.4569 355.352 99.7862H356.352ZM358.975 90.9412L359.815 91.4844C361.526 88.8396 363.655 86.7528 366.203 85.2084L365.685 84.3532L365.167 83.498C362.347 85.2069 360.003 87.5121 358.135 90.3979L358.975 90.9412ZM365.685 84.3532L366.203 85.2084C368.769 83.6534 371.194 82.9132 373.493 82.9132V81.9132V80.9132C370.749 80.9132 367.969 81.7996 365.167 83.498L365.685 84.3532ZM410.232 115.036L410.561 115.981L410.72 115.925L410.853 115.82L410.232 115.036ZM399.374 112.901L398.617 113.555L398.625 113.564L398.633 113.573L399.374 112.901ZM397.056 86.8542H398.056V85.8542H397.056V86.8542ZM390.468 86.8542H389.468V87.8542H390.468V86.8542ZM390.468 84.3532L389.71 83.7013L389.468 83.9824V84.3532H390.468ZM402.058 70.8722V69.8722H401.599L401.3 70.2203L402.058 70.8722ZM404.376 70.8722H405.376V69.8722H404.376V70.8722ZM404.376 84.3532H403.376V85.3532H404.376V84.3532ZM415.356 84.3532H416.356V83.3532H415.356V84.3532ZM415.356 86.8542V87.8542H416.356V86.8542H415.356ZM404.376 86.8542V85.8542H403.376V86.8542H404.376ZM411.574 109.79L411.164 108.878L411.155 108.882L411.146 108.886L411.574 109.79ZM414.563 107.838L415.348 107.219L414.727 106.432L413.942 107.055L414.563 107.838ZM416.393 110.156L417.014 110.94L417.797 110.32L417.178 109.537L416.393 110.156ZM410.232 115.036L409.904 114.092C409.104 114.37 408.083 114.524 406.816 114.524V115.524V116.524C408.233 116.524 409.49 116.353 410.561 115.981L410.232 115.036ZM406.816 115.524V114.524C403.599 114.524 401.442 113.692 400.115 112.229L399.374 112.901L398.633 113.573C400.479 115.608 403.283 116.524 406.816 116.524V115.524ZM399.374 112.901L400.131 112.248C398.81 110.718 398.056 108.256 398.056 104.666H397.056H396.056C396.056 108.478 396.848 111.506 398.617 113.555L399.374 112.901ZM397.056 104.666H398.056V86.8542H397.056H396.056V104.666H397.056ZM397.056 86.8542V85.8542H390.468V86.8542V87.8542H397.056V86.8542ZM390.468 86.8542H391.468V84.3532H390.468H389.468V86.8542H390.468ZM390.468 84.3532L391.226 85.0051L402.816 71.5241L402.058 70.8722L401.3 70.2203L389.71 83.7013L390.468 84.3532ZM402.058 70.8722V71.8722H404.376V70.8722V69.8722H402.058V70.8722ZM404.376 70.8722H403.376V84.3532H404.376H405.376V70.8722H404.376ZM404.376 84.3532V85.3532H415.356V84.3532V83.3532H404.376V84.3532ZM415.356 84.3532H414.356V86.8542H415.356H416.356V84.3532H415.356ZM415.356 86.8542V85.8542H404.376V86.8542V87.8542H415.356V86.8542ZM404.376 86.8542H403.376V105.398H404.376H405.376V86.8542H404.376ZM404.376 105.398H403.376C403.376 107.19 403.807 108.719 404.845 109.798C405.89 110.883 407.384 111.339 409.134 111.339V110.339V109.339C407.712 109.339 406.827 108.972 406.286 108.41C405.738 107.842 405.376 106.9 405.376 105.398H404.376ZM409.134 110.339V111.339C410.136 111.339 411.096 111.123 412.002 110.694L411.574 109.79L411.146 108.886C410.507 109.189 409.84 109.339 409.134 109.339V110.339ZM411.574 109.79L411.985 110.702C412.907 110.287 413.978 109.578 415.185 108.622L414.563 107.838L413.942 107.055C412.789 107.969 411.868 108.561 411.164 108.878L411.574 109.79ZM414.563 107.838L413.778 108.458L415.608 110.776L416.393 110.156L417.178 109.537L415.348 107.219L414.563 107.838ZM416.393 110.156L415.772 109.372L409.611 114.252L410.232 115.036L410.853 115.82L417.014 110.94L416.393 110.156Z" fill="black" mask="url(#path-1-outside-1_5_68)"/>
</g>
<defs>
<filter id="filter0_d_5_68" x="0.636719" y="64.7482" width="421.16" height="60.386" filterUnits="userSpaceOnUse" color-interpolation-filters="sRGB">
<feFlood flood-opacity="0" result="BackgroundImageFix"/>
<feColorMatrix in="SourceAlpha" type="matrix" values="0 0 0 0 0 0 0 0 0 0 0 0 0 0 0 0 0 0 127 0" result="hardAlpha"/>
<feOffset dy="4"/>
<feGaussianBlur stdDeviation="2"/>
<feComposite in2="hardAlpha" operator="out"/>
<feColorMatrix type="matrix" values="0 0 0 0 0 0 0 0 0 0 0 0 0 0 0 0 0 0 0.25 0"/>
<feBlend mode="normal" in2="BackgroundImageFix" result="effect1_dropShadow_5_68"/>
<feBlend mode="normal" in="SourceGraphic" in2="effect1_dropShadow_5_68" result="shape"/>
</filter>
</defs>
</svg>
